<?xml version="1.0" encoding="UTF-8"?>
<svg xmlns="http://www.w3.org/2000/svg" version="1.1" viewBox="0 0 244.2 72.2">
  <defs>
    <style>
      .cls-1 {
        isolation: isolate;
      }

      .cls-2 {
        fill: #85807b;
      }
    </style>
  </defs>
  <!-- Generator: Adobe Illustrator 28.7.3, SVG Export Plug-In . SVG Version: 1.2.0 Build 164)  -->
  <g>
    <g id="_圖層_1" data-name="圖層_1">
      <g id="_レイヤー_2">
        <g class="cls-1">
          <g class="cls-1">
            <path class="cls-2" d="M8.4,4.3c-.3.7-.8,1.4-1.2,2.1l-.4.6c.4,0,.4.1.4.2s0,.1-.1.1c0,0-.1.1-.1.2v5.4c0,0,0,.1-.1.1-.4,0-.5.1-.5-.1v-5.3c-1,1.3-2,2.1-2.1,2.1s0,0,0-.1,0,0,0,0c1.7-1.5,2.8-3.2,3.7-5.2h-3.6v-.4c0,0,3.8,0,3.8,0,.3-.7.5-1.2.6-1.9l.7.2c.1,0,.2,0,.2.2s0,.2-.2.2-.1,0-.1,0c-.2.4-.4.9-.6,1.3h4.9l.8-.6.8.6c0,0,0,.1,0,.2,0,.1,0,.2-.3.2h-6.5ZM7.7,12.5v-.4c0,0,3.1,0,3.1,0v-4h-2.5v-.4c0,0,2.5,0,2.5,0v-2.7h.6c.2.1.3.2.3.3s0,.2-.2.2c0,0-.1,0-.1.2v2h1.6l.8-.6.8.6c0,0,0,.1,0,.2,0,.2-.1.2-.3.2h-2.9v4h2.2l.8-.6.8.6c0,0,0,.1,0,.2,0,.2-.1.2-.3.2h-7.2Z"/>
            <path class="cls-2" d="M19.5,4.3s0,0,0,0c.2,0,.2.5.2.8,0,.8-.2,2.1-.8,2.1s-.3-.1-.3-.3,0-.1,0-.2c.6-.9.7-1.8.7-2.1v-.2ZM20.4,2h.7c.2.1.3.2.3.3s0,.2-.2.2c-.1,0-.2.1-.2.2v10.2c0,.2-.4.3-.5.3s-.1,0-.1,0V2ZM22.3,6c0,0-.1.1-.2.1h-.2c0-.1,0-.2,0-.3,0-.6-.1-1.3-.5-1.7,0,0,0,0,0,0,0,0,0,0,.1,0,.2,0,1,1.1,1,1.8v.3ZM23.8,5v6.8h0c0,.1.1.2.1.2h5.3s0,0,0,.1v.3c0,.1,0,.2,0,.2h-5.8c-.2,0-.4-.2-.4-.5v-7h-.5v-.4c0,0,3.1,0,3.1,0v-2.5h.6c.2.1.3.2.3.3s0,.2-.1.2c0,0-.1.1-.1.2v1.8h1.6l.8-.6.8.6s0,.1,0,.2c0,.1,0,.3-.3.3h-5.6Z"/>
            <path class="cls-2" d="M33.9,7.6c-.4.9-.9,1.5-1,1.5s0,0,0-.1,0,0,0,0c1.1-1.8,1.4-3.7,1.5-5.5h-1.2v-.4c0,0,2.9,0,2.9,0l.7-.5.6.5c0,0,0,.1,0,.2,0,.1,0,.2-.3.2h-2.2c0,1.3-.3,2.4-.6,3.3h1.5l.3-.3.6.4s0,0,0,.1,0,.2-.2.2c0,0-.1,0-.1.1v5c0,0,0,.1-.1.2-.4,0-.5.1-.5-.2v-.8h-1.3v1.4c0,.2-.4.2-.5.2,0,0-.1,0-.1-.2v-5.2ZM34.5,11h1.3v-4h-1.3v4ZM42.1,8.4c.4-.5.4-.6.6-1.1l.6.3c0,0,.1.1.1.2,0,.1-.1.1-.4.2-.3.5-1,.9-1.4,1.1l.5.7c.6.6,1.1,1,1.9,1.3,0,0,.1,0,.1.1,0,0-.1,0-.3.1-.2,0-.3.1-.3.3,0,0,0,.1-.1.1s-.4-.2-.9-.7c-.5-.4-1.2-1.3-1.7-2.7l-.2-.8v4.4c0,.4-.3.8-1.1,1,0,0,0-.2-.1-.4,0-.1-.4-.3-1-.5,0,0,0,0,0-.1s0,0,.1,0c.6,0,1,0,1.2,0s.3,0,.3-.2v-2.5c-.7.7-1.5,1.3-2.3,1.7,0,0,0,0,0,.1h0c0,.3-.1.4-.2.4s-.1,0-.2-.2l-.5-.7.6-.2c1.3-.4,2.3-1.3,2.6-1.6v-2.3h-2.9v-.4c0,0,3.6,0,3.6,0l.4-1.2h-2.7l-.2.4c0,.1-.2.2-.3.2s-.3,0-.3-.2,0,0,0-.1c.6-1.4,1-2.4,1.2-3l.2-.5.6.2c.1,0,.2.1.2.2,0,0,0,.1-.2.1,0,0-.2,0-.2.1v.3c-.1,0,2.4,0,2.4,0l.3-.3.4.4s0,0,0,.1c0,0,0,.2-.2.2,0,0-.1,0-.2.2l-.9,2.9h1.1l.7-.5.6.5c0,0,0,.1,0,.2,0,.1,0,.2-.3.2h-2.9c.2.7.3,1.3.6,1.8l.2.4.6-.5ZM38.4,9.1c0-.3-.3-1-.8-1.4,0,0,0,0,0,0,0,0,0-.1.1-.1.2,0,1.3.9,1.3,1.5s0,.3-.2.3c-.2,0-.3,0-.4-.2ZM41.2,4.8l.5-1.5h-2.5l-.6,1.5h2.7Z"/>
            <path class="cls-2" d="M47.8,3.9l.6.5h.6l.4-1.1v-.9c.1,0,.1-.4.1-.4h.7c.1,0,.2.1.2.2s0,.1-.1.2h-.2c0,0-.4,1.2-.4,1.2l-.4.8h1.6l.3-.4.6.4s0,0,0,.1c0,.2-.1.2-.2.2,0,0-.1,0-.1.1v7c0,0,0,.1-.1.2-.4,0-.5,0-.5-.1v-.7h-2.5v1.1c0,.2-.1.2-.5.3,0,0-.1,0-.1-.3V3.9ZM48.4,7.7h2.5v-2.9h-2.5v2.9ZM48.4,10.8h2.5v-2.8h-2.5v2.8ZM54.6,11.9c.6.2,1,.3,1.3.3s.5-.4.6-.7c.1-.3.6-2.1.6-6.9h-3.6l-.2.4c-.6,1.3-1.4,2.2-1.5,2.2s0,0,0,0,0,0,0-.1c1.2-1.8,1.7-3.9,1.7-5.1h.7c.2,0,.2.1.2.2s0,.2-.1.2-.2,0-.2,0c-.1.6-.3,1.2-.6,1.8h3.5l.3-.3.5.4c0,0,0,.1,0,.2,0,0,0,.1-.1.2-.1,0-.1,0-.1.6,0,3.2-.3,5.6-.7,6.4-.4.9-.8,1.2-1.5,1.3,0-.5-.4-.7-1-.8,0,0,0,0,0,0s0-.1.1-.1h0ZM53.3,6.8s0-.1,0-.1c.3,0,1.7,1.5,1.7,2.3s0,.4-.3.4-.3-.2-.3-.2c-.2-1-.7-1.8-1.2-2.2,0,0,0,0,0,0Z"/>
            <path class="cls-2" d="M63.9,2.5l.6.5h5.8l.3-.4.6.4s0,0,0,.1c0,.1,0,.2-.2.2,0,0-.1,0-.1.1v9.2c0,.2-.3.2-.4.2s-.2,0-.2-.2v-.8h-5.8v.8c0,.2-.1.2-.5.3,0,0-.1,0-.1-.3V2.5ZM64.5,3.3v3.9h5.8v-3.9h-5.8ZM64.5,7.6v3.8h5.8v-3.8h-5.8Z"/>
            <path class="cls-2" d="M84.5,2.6l.6-.3.4.5s0,.1,0,.2c0,0,0,.1-.3.1s-.2,0-.3,0c-.9.9-1.8,1.6-2.9,2.1,0,.1.2.3,0,.3-.1,0-.2,0-.2.1v1.5h3.5l.8-.6.8.6c0,0,0,.1,0,.2,0,.2-.1.2-.3.2h-4.8v4.8c0,.1,0,.3-.3.5-.2.2-.5.3-.9.3,0-.5-.6-.6-1-.7,0,0-.1,0-.1-.1s0,0,.1,0h1.3c0,0,.2,0,.2,0,0,0,0,0,0-.2v-4.5h-5.1v-.4c0,0,5.1,0,5.1,0v-2.1h.5c1-.6,1.9-1.3,2.7-2.1h-6.9l-.2-.4h7Z"/>
            <path class="cls-2" d="M94.9,6.6c0,0,.1,0,.1.2,0,.1-.1.1-.3.2l-.4.5-.4.3s1,.7,1,1.2,0,.3-.1.3c-.3,0-.3,0-.4-.1-.6-1-1.2-1.5-1.5-1.7v5.6c0,0,0,.1-.1.2-.3.1-.5.2-.5-.2v-5.3c-.7.7-1.6,1.3-1.7,1.3s-.1,0-.1-.1,0,0,0,0c1.5-1,2.7-2.5,3.2-4.2h-3v-.4c0,0,1.5,0,1.5,0v-2.2h.6c.2.1.3.2.3.3s0,.2-.1.2c0,0-.1,0-.1.2v1.5h1l.3-.3.4.4c0,0,.1.1.1.2s0,.2-.2.3c0,0-.2,0-.2.1-.4.7-.7,1.3-1,1.7l-.4.4h0c.3.1.5.3.8.5l.3-.5.2-.5v-.3c0,0,.7.3.7.3ZM94.3,12.6v-.4c0,0,3.6,0,3.6,0v-2.1h-2.6v-.4c0,0,2.6,0,2.6,0v-2.1h-1.8v.6c0,0,0,.1-.1.2-.4,0-.5.1-.5-.2V2.3l.5.4h4.4l.3-.3.6.4s0,0,0,.1,0,.2-.2.2c0,0-.1,0-.1.1v5.3c0,0,0,.1-.1.2-.4,0-.5.1-.5-.2v-.8h-1.9v2.1h1.3l.7-.5.6.5c0,0,0,.1,0,.2,0,.2-.1.2-.3.2h-2.5v2.1h1.6l.8-.6.8.6c0,0,0,.1,0,.2,0,.2-.1.2-.3.2h-7.2ZM98,3h-1.8v2h1.8v-2ZM98,5.4h-1.8v1.9h1.8v-1.9ZM98.6,5h1.9v-2h-1.9v2ZM98.6,7.3h1.9v-1.9h-1.9v1.9Z"/>
            <path class="cls-2" d="M109.5,9.3c.5-.4,1.2-1,1.2-1.8-.1,0-.3.1-.4.1-.5,0-.9-.4-.9-.8s.3-.9.9-.9,1,.3,1,1.2-.7,1.7-1.6,2.4l-.2-.3Z"/>
          </g>
          <g class="cls-1">
            <path class="cls-2" d="M13.4,29.6l.8-.6.8.6c0,0,0,.1,0,.2,0,.2-.1.2-.3.2h-4.8v1.4h2.7l.3-.3.6.4s0,0,0,.1,0,.2-.2.2c0,0-.2,0-.2.1v4.2c0,0,0,.1-.1.2-.4,0-.5.1-.5-.2v-.6h-2.8c0,.8-.3,1.5-.9,2.4l.6.3c.6.3,1.3.6,2.1.7.9.1,2,.2,3.3.2,0,0,0,0,0,0s0,.1-.2.2c-.2,0-.3.2-.3.3s0,.2-.1.2c-.3,0-3.7-.2-5.3-1.3l-.4-.3-.3.3c-.4.4-1,.7-1.6,1-.4.2-1.7.5-2.2.5s-.1,0-.1-.1,0-.1,0-.1c1.6-.3,3.2-1.1,3.7-1.9l-.3-.4c-.3-.4-.5-.8-.7-1.3-.3.6-.5,1-.7,1.3,0,0,0,0,0,.2s0,0,0,.1c0,.1-.1.2-.2.2s-.2,0-.2-.2l-.3-.5.3-.2c.4-.3.8-.7,1.1-1.1,0,0,0-.2.1-.2s.1,0,.2.2c.2.5.5.9.8,1.2l.3.3c.2-.4.4-.8.5-1.2l.2-.9h-2.7v.4c0,0,0,.1-.1.2-.4,0-.5.1-.5-.2v-4.9l.6.4h2.8v-1.4h-4.9v-.4c0,0,9,0,9,0ZM9.3,31.8h-2.8v1.4h2.8v-1.4ZM9.3,34.2v-.7h-2.8v1.6h2.8v-.9ZM9.9,35.2h2.8v-1.6h-2.7v1.6ZM9.9,33.2h2.7v-1.4h-2.7v1.4Z"/>
            <path class="cls-2" d="M28.4,30.8l.4-.4.4.5c0,0,.1.2.1.3s0,.2-.2.2h-.1c-.1,0-.2,0-.2,0l-.7.9s0,0,0,0c0,0-.1,0-.1-.1h0c.2-.4.3-.7.4-1.1h-4v2.9c0,.2-.4.2-.5.2,0,0-.1,0-.1-.2v-2.9h-3.8v.5c-.2.2-.4.9-.9.9s-.3-.3-.3-.3c0-.1.2-.3.3-.3.4-.3.7-.7.8-1.4,0,0,0,0,0,0,0,0,0,0,0,.4h3.7v-.9h-4.1v-.4c0,0,7.5,0,7.5,0l.8-.6.8.6s0,0,0,.2c0,.2-.2.2-.3.2h-4.1v.9h4.1ZM27.7,34.6l.8-.6.8.6c0,0,0,0,0,.2,0,.2-.1.2-.3.2h-5l-.4.7-.3.5h4l.3-.3.5.4c0,0,0,.1,0,.2,0,0,0,.2-.2.2,0,0-.1,0-.1.2v2.6c0,.3-.2.6-.9.7,0-.5-.6-.6-.8-.7,0,0-.1,0-.1-.1s0-.1.1-.1,0,0,0,0c.4,0,.6.2.8.2s.2,0,.2-.3v-2.5h-1.8v3.2c0,.2-.4.2-.5.2,0,0-.1,0-.1-.2v-3.2h-1.8v3.2c0,.2-.4.2-.5.2,0,0-.1,0-.1-.2v-3.2h-1.8v3.4c0,0,0,.1-.1.2-.4,0-.5,0-.5-.2v-4.1l.5.4h2.4l.2-.6v-.5c.1,0-4.4,0-4.4,0v-.4c0,0,8.9,0,8.9,0ZM21.5,33.4l.6-.6.6.6c0,0,0,.1,0,.2,0,0,0,.3-.3.3h-2.8v-.4c0,0,1.7,0,1.7,0ZM21.5,32.1l.6-.6.6.6c0,0,0,.1,0,.2,0,.1-.1.3-.2.3h-2.6v-.4c0,0,1.4,0,1.4,0ZM26.3,32.1l.7-.6.6.6s0,.1,0,.2c0,0,0,.3-.2.3h-2.4v-.4c0,0,1.2,0,1.2,0ZM26.5,33.4l.6-.6.6.6c0,0,0,.1,0,.2,0,0,0,.3-.3.3h-2.6v-.4c0,0,1.5,0,1.5,0Z"/>
            <path class="cls-2" d="M42.2,35.5l.8-.6.8.6c0,0,0,0,0,.2,0,.1-.1.2-.3.2h-2.5c-.2.7-.6,1.3-1,1.8l-.4.5h.1c.4.2,2.9.8,2.9,1.6s-.1.3-.2.3h-.2c-1-.7-2-1.1-3-1.5-.3.2-.5.4-.8.6-1.5.8-3.2.9-4.2.9s-.4,0-.6,0c0,0,0,0,0-.1s0-.1,0-.1c.6,0,2.8-.2,4.5-1.2l.5-.3c-.9-.2-1.8-.4-2.7-.5l-.3.3c0,.1-.2.2-.3.2s-.4-.2-.4-.3,0-.1.1-.2c.3-.4.7-.9,1.2-1.4l.4-.5h-3.2v-.4c0,0,3.5,0,3.5,0l.4-.6.3-.6.6.3c.1,0,.2.1.2.2,0,.2-.1.2-.3.2s-.2.1-.5.5h4.7ZM42.2,29.6l.8-.6.8.6c0,0,0,.1,0,.2,0,.2-.1.2-.3.2h-3.5v1.3h2l.3-.4.5.3c0,0,0,.1,0,.2,0,0,0,.1-.1.2,0,0-.1,0-.1.1v3c0,.2,0,.2-.4.3,0,0-.1,0-.1-.3v-.7h-7.1v.6c0,0,0,.1-.1.2-.4,0-.5.1-.5-.2v-3.6l.5.4h2.1v-1.3h-3.6v-.4c0,0,8.9,0,8.9,0ZM34.9,31.6v2h2v-2h-2ZM37.2,35.9l-1.3,1.7c1,0,2,.2,2.9.4.9-.9,1.4-2,1.5-2.1h-3.1ZM39.4,31.3v-1.3h-1.9v1.3h1.9ZM37.5,33.6h1.9v-2h-1.9v2ZM40,33.6h2v-2h-2v2Z"/>
            <path class="cls-2" d="M56.6,29.6l.8-.6.8.6c0,0,0,.1,0,.2,0,.2-.1.2-.3.2h-4.8v1.4h2.7l.3-.3.6.4s0,0,0,.1,0,.2-.2.2c0,0-.2,0-.2.1v4.2c0,0,0,.1-.1.2-.4,0-.5.1-.5-.2v-.6h-2.8c0,.8-.3,1.5-.9,2.4l.6.3c.6.3,1.3.6,2.1.7.9.1,2,.2,3.3.2,0,0,0,0,0,0s0,.1-.2.2c-.2,0-.3.2-.3.3s0,.2-.1.2c-.3,0-3.7-.2-5.3-1.3l-.4-.3-.3.3c-.4.4-1,.7-1.6,1-.4.2-1.7.5-2.2.5s-.1,0-.1-.1,0-.1,0-.1c1.6-.3,3.2-1.1,3.7-1.9l-.3-.4c-.3-.4-.5-.8-.7-1.3-.3.6-.5,1-.7,1.3,0,0,0,0,0,.2s0,0,0,.1c0,.1-.1.2-.2.2s-.2,0-.2-.2l-.3-.5.3-.2c.4-.3.8-.7,1.1-1.1,0,0,0-.2.1-.2s.1,0,.2.2c.2.5.5.9.8,1.2l.3.3c.2-.4.4-.8.5-1.2l.2-.9h-2.7v.4c0,0,0,.1-.1.2-.4,0-.5.1-.5-.2v-4.9l.6.4h2.8v-1.4h-4.9v-.4c0,0,9,0,9,0ZM52.5,31.8h-2.8v1.4h2.8v-1.4ZM52.5,34.2v-.7h-2.8v1.6h2.8v-.9ZM53.1,35.2h2.8v-1.6h-2.7v1.6ZM53.1,33.2h2.7v-1.4h-2.7v1.4Z"/>
            <path class="cls-2" d="M61.8,33.6c.5-.7.8-1.4.8-2.2s0-.1,0-.1c.1,0,.1,0,.1.5,0,1.3-.4,2.2-.8,2.2s-.1,0-.2-.2v-.2ZM63.2,28.9h.7c.2.1.3.2.3.3s0,.2-.2.2c-.1,0-.2.1-.2.2v10.3c0,.2-.4.3-.5.3s-.1,0-.1-.1v-11.2ZM64.5,32.6v-.2c0-.2,0-.9-.4-1.3,0,0,0,0,0,0s0,0,0,0c.2,0,.8.9.8,1.4v.3c-.1,0-.2.1-.3.1h-.2ZM64.5,39.6v-.4c0,0,3.9,0,3.9,0v-.9h-3.2v-.4c0,0,3.2,0,3.2,0v-1h-2.2v.4c0,0,0,.1-.1.2-.4,0-.5.1-.5-.2v-3.7l.5.4h2.2v-.7h-3.2v-.4c0,0,3.2,0,3.2,0v-.6c-.8,0-1.5.1-2.1.1s-.6,0-.6-.2,0-.1.1-.1c1.6,0,4.2-.3,5.5-1l.6.3c0,0,.1.1.1.2s0,.1-.2.1-.3,0-.3,0c-.7.2-1.6.4-2.5.5v.7h2.1l.8-.6.8.6c0,0,0,.1,0,.2,0,.2-.1.2-.3.2h-3.5v.7h2l.3-.3.6.4s0,0,0,.1c0,0,0,.2-.2.2,0,0-.2,0-.2.1v2.8c0,.1,0,.2-.4.3-.2,0-.2,0-.2-.6h-2v1h2.1l.7-.5.6.5c0,0,0,.1,0,.2,0,.1,0,.2-.3.2h-3.2v.9h2.4l.8-.6.8.6c0,0,0,.1,0,.2,0,.2-.1.2-.3.2h-8.2ZM69.6,29.9v-.9h.6c.2,0,.3.2.3.3,0,.2-.1.2-.2.2-.1,0-.1,0-.1.4h1.1l.7-.5.6.5c0,0,0,.1,0,.2,0,.1,0,.2-.3.2h-2.3v.9c0,0,0,.1-.2.2-.4,0-.4,0-.4-.2v-.9h-2.3v.9c0,0,0,.1-.2.2-.4,0-.4,0-.4-.2v-.9h-1.8v-.4c0,0,1.8,0,1.8,0v-.9h.6c.2,0,.3.2.3.3,0,.2-.1.2-.2.2,0,0-.1,0-.1,0v.3h2.3ZM68.4,34.3h-2.2v.9h2.2v-.9ZM68.4,35.6h-2.2v.9h2.2v-.9ZM69,35.2h2v-.9h-2v.9ZM69,36.5h2v-.9h-2v.9Z"/>
            <path class="cls-2" d="M77.7,34.3c-.4.5-1.2,1.3-1.4,1.3s0,0,0,0,0,0,0-.1c.6-.6,1.1-1.3,1.5-2,.5-.8.8-1.5.9-2.2l.7.2c.1,0,.2,0,.2.2,0,.2-.1.2-.3.2s0,0,0,0c-.2.5-.5,1-.8,1.5v6.5c0,0,0,.1-.1.2-.4.1-.5.1-.5-.2v-5.7ZM78.2,28.9l.6.2c.1,0,.2.1.2.2s0,.2-.2.2h-.2c-.6,1.4-2.2,2.6-2.4,2.6s0,0,0,0,0,0,0,0c.9-.7,1.7-2,1.9-2.7v-.3ZM85.2,34l.8-.6.8.6s0,0,0,.2,0,.2-.3.2h-1.9v1.5h1l.8-.6.8.6s0,.1,0,.2c0,.2-.1.2-.3.2h-2.3v3.2c0,.1,0,.6-.9.7,0-.4-.7-.5-1.1-.6,0,0-.1,0-.1-.1s0-.1.1-.1h0c.5,0,.8,0,1,0s.4,0,.4-.3v-2.9h-4.7v-.4c0,0,4.7,0,4.7,0v-1.5h-4.4v-.4c0,0,5.5,0,5.5,0ZM80.6,36.8s0-.1,0-.1c.1,0,1.4.8,1.4,1.6s-.3.3-.3.3c-.1,0-.3-.1-.3-.4,0-.1-.2-.9-.8-1.4,0,0,0,0,0,0ZM80.8,29.1l.5.4h3.5l.3-.4.5.3c0,0,0,.1,0,.2,0,0,0,.1-.1.2,0,0-.1,0-.1.1v3.4c0,0,0,.2-.1.2-.4,0-.5.1-.5-.2v-.4h-3.4v.4c0,0,0,.1-.1.2-.4,0-.5.1-.5-.2v-4.2ZM81.4,29.8v1.2h3.4v-1.2h-3.4ZM81.4,31.4v1.1h3.4v-1.1h-3.4Z"/>
            <path class="cls-2" d="M90.7,36v-.4c0,0,2.9,0,2.9,0-.1-.5-.3-.9-.6-1.2,0,0,0,0,0,0,0,0,0-.1.1-.1s.4.1.7.5c.4.4.4.5.4.9h3.3c.2-.4.4-.9.5-1.3l.6.2c.1,0,.2.1.2.2s0,.2-.2.2-.2,0-.2,0l-.6.7h2.1l.8-.6.8.6c0,0,0,.1,0,.2,0,.2-.1.2-.3.2h-10.5ZM90.9,34v-.4c0,0,4.7,0,4.7,0v-1.2h-3.6v-.4c0,0,3.6,0,3.6,0v-1.1h-4.4v-.4c0,0,5.8,0,5.8,0,.2-.5.4-1.1.5-1.6h.6c.2.2.2.2.2.3s0,.2-.2.2-.2,0-.2,0c-.2.3-.4.7-.7,1h2l.8-.6.8.6c0,0,0,.1,0,.2,0,.2-.1.2-.3.2h-4.4v1.1h2.3l.7-.5.6.5c0,0,0,.1,0,.2,0,.2-.1.2-.3.2h-3.4v1.2h3.4l.8-.6.8.6s0,.1,0,.2c0,.1,0,.3-.3.3h-10ZM98.6,37l.3-.3.6.4s0,0,0,.1,0,.2-.2.2c0,0-.2,0-.2.1v2.5c0,0,0,.1-.1.2-.4,0-.5.1-.5-.2v-.5h-5.6v.5c0,0,0,.1-.1.2-.4,0-.5.1-.5-.2v-3.3l.5.3h5.8ZM93,37.3v1.8h5.6v-1.8h-5.6ZM94.2,30.3c-.2-.6-.5-1-.7-1.1,0,0,0,0,0,0,0,0,0-.1.1-.1.2,0,1.1.6,1.2,1,0,.3,0,.5-.2.5s-.3,0-.3-.2Z"/>
            <path class="cls-2" d="M106.4,34.6c-.5.7-1.3,1.4-1.4,1.4s0,0,0,0,0,0,0-.1c1.5-1.6,2.3-3.5,2.5-4.4l.7.2c.1,0,.2.1.2.2s0,.2-.2.2-.2,0-.2,0c-.3.6-.6,1.2-.9,1.8v6.3c0,.1,0,.1-.4.3,0,0-.2,0-.2-.3v-5.4ZM106.9,29l.6.2c.1,0,.2.1.2.2s0,.2-.2.2h-.2c-.6,1.5-2.3,3-2.4,3s0,0,0,0,0,0,0,0c1-.9,1.8-2.4,2-3v-.3ZM113.2,35v-1.4h.7c.2.1.3.2.3.3s0,.2-.2.2c-.1,0-.2,0-.2.2v.7h.6l.8-.6.8.6c0,0,0,0,0,.2,0,.3-.2.3-.3.3h-1.9v4c0,.4-.4.6-1,.7l-.3-.4c-.1-.1-.4-.3-.9-.3-.1,0-.2,0-.2-.2s0-.1.1-.1h0c.6,0,1,.2,1.4.2,0,0,.1,0,.2-.1v-3.8h-5.2v-.4c0,0,5.2,0,5.2,0ZM109,33.1v-.4c0,0,2.6,0,2.6,0v-1.7h-3.3v-.4c0,0,3.3,0,3.3,0v-1.6h.6c.2.1.3.2.3.3s0,.2-.2.2c0,0-.1,0-.1.2v.9h2.1l.8-.6.8.6c0,0,0,.1,0,.2,0,.2-.1.2-.3.2h-3.5v1.7h1.6l.8-.6.8.6c0,0,0,.1,0,.2,0,.2-.1.2-.3.2h-6.2ZM110.6,37.8c0-.4-.4-1.2-.9-1.7,0,0,0,0,0,0s0,0,0,0c.1,0,1.5,1,1.5,1.9s-.2.3-.3.3c-.2,0-.3-.1-.3-.4Z"/>
            <path class="cls-2" d="M121.1,30.4l.6.5h2.1l.3-.8v-.7c.1,0,.1-.4.1-.4h.7c.1,0,.2.1.2.2s0,.1-.1.2h-.2c0,0-.4.9-.4.9l-.3.5h3.8l.3-.4.6.4s0,0,0,.1c0,.2-.1.2-.2.2,0,0-.1,0-.1.1v8.4c0,0,0,.1-.1.2-.4,0-.5.1-.5-.1v-.5h-6.2v.5c0,.2-.1.2-.5.3,0,0-.1,0-.1-.3v-9.4ZM121.7,31.2v2.2h6.2v-2.2h-6.2ZM121.7,33.8v2.4h6.2v-2.4h-6.2ZM121.7,36.5v2.4h6.2v-2.4h-6.2Z"/>
            <path class="cls-2" d="M142.2,29.6l.3-.3.6.4s0,0,0,.1,0,.2-.2.2c0,0-.2,0-.2.1v4.3c0,0,0,.1-.1.2-.4,0-.5.1-.5-.2v-.7h-6.6v5.3s0,.3.3.3h7c.5,0,.6-.6.7-.7l.2-.7c0,0,0,0,.1,0s0,0,0,.1v.8c-.1,0-.1.2-.1.3,0,.1,0,.2,0,.3.1,0,.2.1.2.3,0,.2-.2.5-.5.5h-8c-.2,0-.6,0-.6-.6v-6.3l.6.4h6.6v-3.4h-7.7v-.4c0,0,7.6,0,7.6,0Z"/>
            <path class="cls-2" d="M148.6,30.9l.6.5h.6l.4-1.1v-.9c.1,0,.1-.4.1-.4h.7c.1,0,.2.1.2.2s0,.1-.1.2h-.2c0,0-.4,1.2-.4,1.2l-.4.8h1.6l.3-.4.6.4s0,0,0,.1c0,.2-.1.2-.2.2,0,0-.1,0-.1.1v7c0,0,0,.1-.1.2-.4,0-.5,0-.5-.1v-.7h-2.5v1.1c0,.2-.1.2-.5.3,0,0-.1,0-.1-.3v-8.3ZM149.2,34.7h2.5v-2.9h-2.5v2.9ZM149.2,37.8h2.5v-2.8h-2.5v2.8ZM155.4,38.9c.6.2,1,.3,1.3.3s.5-.4.6-.7c.1-.3.6-2.1.6-6.9h-3.6l-.2.4c-.6,1.3-1.4,2.2-1.5,2.2s0,0,0,0,0,0,0-.1c1.2-1.8,1.7-3.9,1.7-5.1h.7c.2,0,.2.1.2.2s0,.2-.1.2-.2,0-.2,0c-.1.6-.3,1.2-.6,1.8h3.5l.3-.3.5.4c0,0,0,.1,0,.2,0,0,0,.1-.1.2-.1,0-.1,0-.1.6,0,3.2-.3,5.6-.7,6.4-.4.9-.8,1.2-1.5,1.3,0-.5-.4-.7-1-.8,0,0,0,0,0,0s0-.1.1-.1h0ZM154.1,33.8s0-.1,0-.1c.3,0,1.7,1.5,1.7,2.3s0,.4-.3.4-.3-.2-.3-.2c-.2-1-.7-1.8-1.2-2.2,0,0,0,0,0,0Z"/>
            <path class="cls-2" d="M165,29.9l.5.4h1.6c.2-.4.3-.9.3-1.3h.6c.1.2.2.2.2.3s0,.2-.2.2-.2,0-.2,0l-.5.7h2.8l.3-.3.5.4c0,0,.1.2.1.2s0,.2-.1.2c0,0-.1,0-.1.1v4.2c.5-.6,1-1.2,1.4-1.7l.2-.3.5.4c0,0,.1.1.1.2,0,0,0,.1-.1.1h-.3c-.5.7-1.1,1.4-1.8,2.1v3.5c0,.2-.1.6-1.1.7,0-.4-.2-.6-1.1-.8,0,0-.1,0-.1-.1,0,0,0-.1,0-.1h0c.6.1,1.1.2,1.3.2s.3,0,.3-.3v-2.6c-1.5,1.3-3.2,2.3-4.7,2.7-.9.3-1.8.5-2.6.6,0,0-.1,0-.1-.1s0,0,0,0c.9-.2,1.9-.5,3-.9,2-.9,3.3-1.9,4.4-2.9h0c-2.6.8-5.4,1.1-6.4,1.2,0,0,0,0-.1.2,0,.1,0,.2-.2.2s-.2,0-.2-.2l-.2-.9h.7c0,0,1.2,0,1.2,0v-6.4ZM170.3,32.2v-1.5h-4.7v1.5h4.7ZM170.3,33.9v-1.4h-4.7v1.4h4.7ZM165.6,34.3v1.9h.9c1.4-.3,2.7-.6,3.8-.9v-1h-4.7Z"/>
            <path class="cls-2" d="M178.9,33.6c0,0,0,0,0,.2,0,2.1-1,3.7-1.5,3.7s-.3-.3-.3-.3c0,0,0-.2.2-.3.6-.5.9-1.1,1.1-1.6.2-.5.3-1,.3-1.6,0,0,0,0,0,0ZM180.4,32l.9.2c0,0,.1,0,.1.2s0,.2-.2.2-.2,0-.2.1v6.2h0c0,.1.2.2.2.2h3.7c.3,0,.5-.1.6-.8l.3-.9c0,0,0-.1.1-.1s0,0,0,.1v.8c-.2.1-.2.3-.2.4s0,.2,0,.3c.1,0,.2.2.2.3,0,.2-.1.5-.5.5h-4.9c0,0-.3-.2-.3-.5v-7.2ZM183.8,31.4c0,.2-.2.2-.3.2s0,0-.3-.1c-.9-1.3-1.8-1.9-2.2-2,0,0,0,0,0,0,0,0,0-.1.1-.1.4,0,2.1.9,2.6,1.8v.3ZM185.8,33.5c0,0,0-.1.1-.1.3,0,1.8,2,1.8,3s0,.4-.3.4-.3-.2-.3-.3c-.2-1.2-.7-2.4-1.3-3,0,0,0,0,0,0Z"/>
          </g>
          <g class="cls-1">
            <path class="cls-2" d="M7.9,66c0,.1,0,.3-.2.4-.2.1-.5.2-.9.3,0-.4-.2-.6-.8-.8,0,0-.1,0-.1-.1s0-.1,0-.1,0,0,0,0c.5.1.8.2,1,.2s.3,0,.3-.3v-2.9h-1.8c0,1.1-.4,2.9-1.2,4.2,0,0,0,0-.1,0,0,0,0,0,0,0s0,0,0,0c.7-2,.9-4.3.9-6.7v-3.8l.5.3h1.7l.3-.3.5.4c0,0,.2.1.2.2s0,.2-.2.2c0,0-.1,0-.1.1v8.9ZM7.3,59.6h-1.6v2.6c0,0,1.6,0,1.6,0v-2.6ZM5.6,59.3h1.6v-2.4h-1.6v2.4ZM12.4,57.2h-2.2v3.1c0,1.6-.2,2.9-.5,4-.5,1.6-1.3,2.6-1.5,2.6s0,0,0-.1,0,0,0,0c.5-.7.9-1.6,1.1-2.6.3-1,.4-2.2.4-3.8v-3.7l.5.3h2.2l.3-.3.5.4c0,0,0,0,0,.1,0,0,0,.2-.1.2,0,0-.1,0-.1.1v7.9c0,.2,0,.5.3.6h.4c.5,0,.6,0,.7-.6l.2-1c0,0,0-.1.1-.1.1,0,.1,0,.1.2v1c0,.3,0,.5,0,.5s.1.1.1.2c0,.1,0,.3-.2.3h-.4c0,0-.6.1-.6.1h-.7c-.5-.2-.6-.6-.6-1.1v-8.2Z"/>
            <path class="cls-2" d="M27.8,60.3l.2-.4h-4.3c0,0-.1,0-.2-.1-.1-.1-.1-.2-.1-.7l-2.4.2-.2-.4,2.6-.2v-1h-3.1v1.6c0,1.4,0,2.6-.2,3.6-.1,1.1-.5,2.8-1.3,3.9,0,0,0,0-.1,0,0,0,0,0,0-.1s0,0,0,0c.6-1.4,1-2.9,1-7.4v-2.4l.6.4h3.3v-1.5h.6c.2.1.3.2.3.3s0,.2-.2.2c0,0-.1,0-.1.2h2.7l.7-.5.6.4c0,0,.1.2.1.2s0,.2-.2.2h-3.8v.5h4.4l.4-.4.4.6c0,0,0,.2,0,.2,0,.2-.1.2-.2.2s-.2,0-.3,0c0,0-.1,0-.2,0l-.8.7s0,0,0,0c0,0-.1,0-.1-.1s0,0,0,0c.3-.3.5-.6.6-.8h-4.4v.9h2.3c0-.1.5-.7.5-.7l.6.5c0,0,0,0,0,.2,0,.1,0,.2-.3.2l-3.3.2c0,.1,0,.2,0,.3h0s4.3,0,4.3,0c0,0,.2-.1.2-.3v-.5s0,0,.1,0,0,0,0,0v.4c0,.2,0,.3.2.3,0,0,0,.1,0,.2s0,.3-.4.3h-.4l.4.3c0,0,0,.1,0,.2,0,0,0,.1-.1.2,0,0-.1,0-.1.1v2.3c0,.2,0,.2-.4.3,0,0-.2,0-.2-.3v-.4h-6c0,.3,0,.4-.1.4-.4,0-.5.1-.5-.2v-3l.5.4h6.1ZM24.4,60.7h-2.6v.7h2.6v-.7ZM21.8,61.7v.6h2.6v-.6h-2.6ZM27.1,63.4l.3-.4.5.4c0,0,.1.1.1.2,0,0,0,.2-.2.2,0,0-.1,0-.1.1v2.4c0,.5-.6.6-.9.7,0-.4-.5-.6-.8-.6,0,0-.1,0-.1-.1s0-.1.1-.1,0,0,0,0c.3,0,.6.1.8.1s.2,0,.2-.3v-.4h-4.7v1.3c0,0,0,.1-.1.2-.4,0-.5.1-.5-.2v-3.8l.5.4h4.7ZM22.4,63.8v.6h4.7v-.6h-4.7ZM22.4,64.7v.6h4.7v-.6h-4.7ZM25,61.4h2.8v-.7h-2.8v.7ZM25,61.7v.6h2.8v-.6h-2.8Z"/>
            <path class="cls-2" d="M42.4,61.1l.8-.6.8.6c0,0,0,0,0,.2,0,.2-.1.2-.3.2h-10.6v-.4c0,0,9.2,0,9.2,0Z"/>
            <path class="cls-2" d="M53.2,66c.7.2,1.3.3,2.3.3s1.7,0,2.6-.2c0,0,0,0,0,0s0,.1-.2.2c-.1,0-.2.2-.3.3,0,.1,0,.2-.1.2-.6,0-1.1,0-1.5,0-1.4,0-2.7-.1-3.6-.7-1-.6-1.8-1.7-2.2-2.8-.2.8-.5,1.4-.8,1.9-.7,1.2-1.7,1.8-1.8,1.8s-.1,0-.1,0,0,0,0,0c.7-.6,1.3-1.3,1.6-2.2.3-.8.6-1.8.7-2.9v-.4h.7c.2.2.2.2.2.3s0,.2-.2.2c0,0-.2,0-.2,0l-.2.9c.3.7.7,1.3,1.1,1.8.4.4.8.8,1.2,1v-5.4h-3.9v-.4c0,0,6.8,0,6.8,0l.8-.6.8.6c0,0,0,.1,0,.2,0,.1,0,.2-.3.2h-3.6v2.3h2.2l.7-.6.7.5c0,0,.1.2.1.2s0,.2-.2.2h-3.6v3.1ZM48.8,57.9v.4c-.2.5-.6,1.1-.9,1.1s-.3-.3-.3-.3,0-.2.3-.3c.5-.4.9-1,.9-1.8,0,0,0,0,0,0s0,0,0,0v.6s3.7,0,3.7,0v-1.6h.6c.2.1.3.2.3.3s0,.2-.1.2c0,0-.1.1-.1.2v1h3.9l.4-.4.4.6c0,0,.1.1.1.2,0,.1,0,.2-.2.2h-.2c0,0-.2,0-.2,0l-.8.9s0,0,0,0c0,0-.1,0-.1-.1h0c.3-.4.5-.8.6-1.2h-8.2Z"/>
            <path class="cls-2" d="M70.4,59.8l.2-.3.5.4c0,0,.1.1.1.2s0,.2-.1.2c0,0-.1,0-.1.1v2.7c0,0,0,.2-.1.2-.4,0-.5.1-.5-.2v-.4h-6.4v.3c0,0,0,.1-.1.2-.4,0-.5.1-.5-.2v-3.4c-.8.3-1.5.6-1.5.6s0,0,0,0,0,0,0,0c.8-.3,1.5-.7,2.2-1.1,1.7-1,2.6-2.3,2.9-2.8l.6.2c.1,0,.2.1.2.2s0,0-.1.1c.4.4.8.8,1.3,1.2,1.2.8,2.7,1.2,3.8,1.4,0,0,0,0,0,0s0,.1-.2.2c-.2,0-.3.2-.3.3,0,.1,0,.2-.1.2-.2,0-1.3-.5-1.7-.7-1.2-.6-2.3-1.5-3.1-2.5h0c-1.3,1.5-2.3,2.2-3.4,2.6l-.5.2.4.3h6.5ZM64,60.1v2.2h2.9v-2.2h-2.9ZM69.7,63.3l.3-.4.5.3c0,0,0,.1,0,.2,0,0,0,.1-.1.2,0,0-.1,0-.1.1v3.3c0,.2,0,.2-.5.3-.1,0-.1-.1-.1-.6h-4.9c0,.3,0,.3-.1.4-.4,0-.5.1-.5-.2v-3.9l.5.3h5.1ZM64.7,63.7v1.2h4.9v-1.2h-4.9ZM64.7,65.2v1.1h4.9v-1.1h-4.9ZM65.6,62.1v-.2c-.1-.2-.3-1-.7-1.2,0,0,0,0,0,0,0,0,0,0,0,0,.2,0,1,.9,1,1.2s0,.4-.2.4h-.2ZM67.6,58.6l.7-.5.6.5c0,0,0,0,0,.2,0,.2-.1.2-.3.2h-3.2v-.4c0,0,2.1,0,2.1,0ZM67.5,60.1v2.2h2.9v-2.2h-2.9ZM69.1,60.5l.6.3c0,0,.1.1.1.2,0,.1,0,.1-.3.1l-.4.6-.5.5s0,0-.1,0c0,0-.1,0-.1-.1s0,0,0,0c.2-.2.3-.4.4-.7l.2-.5v-.3Z"/>
            <path class="cls-2" d="M78,57.8c0,1.6,0,3.5-.7,4.9-.3.6-.9,1.5-1.1,1.5s-.1,0-.1-.1,0,0,0,0c.6-.9,1.2-2.1,1.2-6v-1l.6.3h5v-.6c0,0-.2-.6-.2-.6h.7c.2,0,.3.1.3.2s0,.2-.2.2c-.1,0-.2,0-.2.1v.7h2.4l.7-.5.6.4c0,0,.1.2.1.3,0,.1-.1.2-.2.2h-3.4c0,.6.3,2.1.9,3.3.4-.6.7-1.4,1-2.1v-.4c.1,0,.7.3.7.3.1,0,.2.1.2.2,0,.1,0,.1-.2.1h-.2c-.2.5-.6,1.2-1,1.8l-.3.4.4.5c.6.6,1,.7,1.1.7s.1,0,.2-.3l.3-.9s0,0,.1,0c.1,0,.1,0,.1.1l-.2,1c0,.3,0,.4,0,.5,0,0,.1.2.1.3,0,.2-.3.2-.4.2-.3,0-1.1-.3-1.8-1l-.5-.6c-.9,1.1-1.9,1.5-1.9,1.5s0,0,0,0,0,0,0,0c.4-.3.8-.6,1.2-1l.6-.7c-.7-1.4-.9-2.9-1.1-3.8h-5ZM77.9,64.1s0,0,0,0c0,.7-.5,2.5-1.2,2.5s-.3-.2-.3-.3c0-.1.2-.3.3-.3.4-.3.6-.6.8-.9.1-.3.2-.6.3-.9,0,0,0,0,.1,0ZM81.2,58.9l.7-.5.6.5c0,0,0,.1,0,.2,0,.1,0,.2-.3.2h-3.7v-.4c0,0,2.6,0,2.6,0ZM78.8,60l.5.3h2.2l.3-.4.5.3c0,0,0,.1,0,.2,0,0,0,.1-.1.2,0,0-.1,0-.1.1v2.2c0,.1,0,.2-.4.3,0,0-.2,0-.2-.3v-.4h-2v.4c0,0,0,.1-.1.2-.4,0-.5.1-.5-.2v-2.9ZM79.4,60.7v1.6h2v-1.6h-2ZM79.5,63.7l.8.2c0,0,.1,0,.1.2s0,.2-.2.2c0,0-.2,0-.2.2v1.7c0,.1,0,.2.2.2h3.2c.4,0,.6-.3.7-.7l.2-.7c0,0,0,0,.1,0s0,0,0,.1v.8c0,.3,0,.4.1.5.1,0,.2.2.2.3,0,.2-.2.3-.4.4h-4.7c-.3-.1-.3-.2-.3-.5v-2.7ZM82.5,65.2c-.3-.5-.8-1.1-1.2-1.2,0,0,0,0,0,0,0,0,0-.1.1-.1.2,0,.7.2,1,.4.6.4.6.5.7.9,0,.1-.1.3-.3.3s-.2,0-.3-.2ZM84.3,56.2c0-.1,0-.1.1-.1.2,0,.5.2.7.3.5.3.5.5.5.7s0,.2-.1.3c-.3,0-.3,0-.4-.1-.2-.5-.5-.8-.8-.9,0,0,0,0,0,0ZM86.4,66.3c-.4-1.3-1-1.7-1.2-1.8,0,0,0,0,0,0,0,0,0-.1,0-.1.1,0,.7.4,1.1.8.6.6.6.8.6,1.2,0,.1-.2.2-.3.2s-.2,0-.3-.2Z"/>
            <path class="cls-2" d="M92,60.3c-.1,1.3-.6,1.5-.8,1.5s-.3-.2-.3-.3,0-.2.2-.3c.4-.4.7-.9.7-1.8s0-.1,0-.1,0,0,0,0v.6h5.7c.5-.7.9-1.5,1.3-2.4v-.3c.1,0,.7.2.7.2.1,0,.2,0,.2.2,0,.2-.1.2-.2.2s-.1,0-.1,0c-.2.4-.4.8-.8,1.3l-.6.8h2.5l.4-.4.4.5c0,0,.1.1.1.2,0,.1,0,.3-.2.3h-.2c0,0-.2,0-.2,0-.2.3-.9,1.2-1.1,1.2s0,0,0,0h0c.3-.6.6-1,.7-1.4h-8.5ZM98,61.9l.3-.5.4.3c.2.1.3.2.3.3s0,.1-.3.2c-.4.9-1,1.7-1.6,2.3l-.5.4c1,.6,2.1,1.2,4.8,1.3,0,0,.1,0,.1,0s-.1,0-.3.1c-.2,0-.3.1-.3.3,0,.1,0,.2-.1.2h0c-.8-.1-1.5-.4-2.3-.6-1.1-.4-1.7-.8-2.1-1.1-1.3,1-2.7,1.5-4.7,1.8,0,0,0,0,0,0,0,0-.2,0-.2-.1s0-.1.1-.1c2.5-.5,3.6-1.2,4.4-1.8-.5-.4-1.2-1-2-2.7h-1.1v-.4s5.3,0,5.3,0ZM99.8,56.3c0,0,.1.1.1.2,0,.1-.1.1-.2.1s-.3,0-.3,0c-1.1.4-2.4.6-3.8.8-1.2.1-2.3.2-3.2.2s-.6,0-.6-.1,0-.1.1-.1c1.7,0,5.3-.3,7.3-1.3l.6.3ZM93.6,59.4c-.1-.7-.5-1.3-.7-1.5,0,0,0,0,0,0s0-.1.1-.1c.2,0,1.2,1,1.2,1.5s0,.4-.3.4-.3,0-.3-.2ZM94.1,62.2c.7,1.4,1.3,2,2,2.4l.5-.5c.5-.5,1-1.2,1.3-2h-3.8ZM96.1,59.3c0-.6-.3-1.2-.6-1.5,0,0,0,0,0,0,0,0,0-.1.1-.1.2,0,1.1,1.1,1.1,1.5s0,.5-.3.5-.3-.2-.3-.3Z"/>
            <path class="cls-2" d="M110.1,56.8l.8-.6.8.6c0,0,0,.1,0,.2,0,.2-.1.2-.3.2h-3.2c-.4,1.1-.8,1.8-1.5,2.8h.9c1-.2,1.9-.4,2.7-.6-.2-.3-.5-.7-.9-.9,0,0,0,0,0,0s0-.1,0-.1c.3,0,1.9,1.2,1.9,2s-.1.3-.2.3c-.3,0-.3,0-.4-.2l-.4-.7c-.7.2-1.5.4-2.3.6.5,0,.6.1.6.3s0,.2-.2.2c0,0-.1.1-.1.2v1.6h1.3l.8-.6.8.6c0,0,0,0,0,.2,0,.3-.2.3-.3.3h-2.7v2.4c1-.3,2-.6,2.8-.8,0,0,0,0,0,0,.1,0,.2,0,.2.2s0,0,0,.1c-1.7.8-4.2,1.4-5.5,1.6,0,0,0,0,0,.2s0,.2-.2.2-.2,0-.2-.2v-.4c-.1,0-.3-.4-.3-.4h.6c.5,0,1.2,0,2.2-.3v-2.6h-2.6v-.4c0,0,2.6,0,2.6,0v-2.2c-.8.1-1.4.2-2,.3,0,0,0,0-.1.2,0,.1,0,.2-.2.2s-.2,0-.2-.2l-.2-.9h.5c0,0,.7,0,.7,0,.6-1,.9-1.7,1.1-2.8h-2.3v-.4c0,0,4.8,0,4.8,0ZM112.5,57.2h.7c.2.1.3.2.3.3s0,.2-.2.2-.2.1-.2.2v6.2c0,.2-.4.3-.5.3s-.1,0-.1-.1v-7.1ZM114.7,56h.7c.2.1.3.2.3.3s0,.2-.2.2c-.1,0-.2,0-.2.2v9.6c0,.4-.4.7-1,.7l-.3-.4c-.1-.1-.4-.3-.8-.4-.1,0-.2,0-.2-.1,0-.1,0-.1.1-.1,0,0,1.2.2,1.3.2s.1,0,.2-.1v-10.1Z"/>
            <path class="cls-2" d="M123.9,63.3c.5-.4,1.2-1,1.2-1.8-.1,0-.3.1-.4.1-.5,0-.9-.4-.9-.8s.3-.9.9-.9,1,.3,1,1.2-.7,1.7-1.6,2.4l-.2-.3Z"/>
            <path class="cls-2" d="M133.7,59v-.4c0,0,1.9,0,1.9,0v-2.7h.6c.2.1.3.2.3.3s0,.2-.2.2c0,0-.1.1-.1.2v2h.9v-2.7h.6c.2.1.3.2.3.3s0,.2-.2.2c0,0-.1.1-.1.2v2h.5c.1-.3.3-.6.4-.9l.3-1.1v-.4c0,0,.6.1.6.1.1,0,.2.1.2.2,0,0,0,.2-.2.2s-.2,0-.2.1c0,.3-.2.7-.4,1.1l-.4.7h.2l.7-.6.6.6c0,0,0,.1,0,.2,0,.1,0,.3-.3.3h-6.2ZM137.4,61.4l.3-.8.2-.7v-.4h.7c.1.2.2.2.2.3s0,.1-.1.2h-.2c0,0-.4.9-.4.9l-.3.5h.5l.6-.6.6.6c0,0,0,.1,0,.2,0,0,0,.3-.3.3h-2.4v1.7h1l.7-.6.6.6c0,0,0,.1,0,.2s0,.3-.2.3h-2.1v1.8l2.7-.6c0,0,.1,0,.1.1s0,.2-.1.2c-.8.3-1.7.6-2.6.7l-2.5.5c0,0,0,0,0,.2s0,.2-.2.2-.2,0-.3-.3l-.2-.7c.8,0,1.7-.1,2.6-.3v-1.9h-2.1v-.4c0,0,2.1,0,2.1,0v-1.7h-2.4v-.4c0,0,3.4,0,3.4,0ZM134.6,58.4v-.2c0-.5-.2-1.2-.5-1.6,0,0,0,0,0,0,0,0,0,0,.1,0,.2,0,.9,1.1.9,1.6s0,.4-.3.4h-.2ZM135.8,61.1c0,0-.1.2-.2.2-.1,0-.3,0-.3-.2,0-.3-.2-.9-.6-1.4,0,0,0,0,0,0,0,0,0,0,0,0,.3,0,1.1,1,1.1,1.3v.3ZM143.3,66.3c0,.2-.1.7-1.2.8,0-.4-.3-.6-.8-.8,0,0-.1,0-.1-.1s0,0,.1,0h1.1c0,.1.2.1.2.1v-.2c0,0,0-6.3,0-6.3h-3v-.4c0,0,3,0,3,0v-3.5h.6c.2,0,.3.2.3.3s0,.2-.2.2c-.1,0-.2,0-.2.1v2.9h.2l.7-.6.6.6s0,.1,0,.2,0,.3-.2.3h-1.3v6.5ZM140.7,63.2c0-.8-.3-1.6-.6-2,0,0,0,0,0,0,0,0,0,0,.1,0,.2,0,1.1,1.3,1.1,2.1v.3c-.1,0-.2.1-.3.1h-.2c0,0,0-.3,0-.3Z"/>
            <path class="cls-2" d="M149.8,59.6c-.7,1.2-1.6,2.1-1.7,2.1s0,0,0,0,0,0,0-.1c.7-.8,1.2-1.7,1.6-2.6.4-1,.8-2,.9-2.8h.7c.1.2.2.2.2.3s0,.2-.2.2-.2,0-.2,0c-.2.7-.6,1.5-.9,2.2.4.1.4.1.4.2s0,0-.1.1c0,0-.1.1-.1.2v7.6c0,0,0,.1-.1.2-.4,0-.5,0-.5-.2v-7.3ZM155.6,66.1c0,.3-.2.8-1.1,1,0-.5-.6-.7-1.1-.8,0,0,0,0,0-.1s0,0,.1,0c.6,0,1,0,1.2,0s.3,0,.3-.2v-7.3h-2.2c-.5.9-1.3,1.7-1.5,1.7s0,0,0,0,0,0,0-.1c.5-.6.9-1.3,1.3-2,.4-.9.6-1.5.7-2.2l.7.2c.1,0,.2,0,.2.2s0,.2-.2.2-.2,0-.2,0c-.2.6-.5,1.2-.8,1.8h5l.3-.4.5.5c0,0,.2.2.2.3,0,.2-.1.2-.3.2s-.2,0-.3,0l-1,1.4s0,0,0,0c0,0-.1,0-.1-.1h0c.3-.5.6-1.1.7-1.6h-2.3v7.4ZM153.1,61l.7.3c0,0,.2.1.2.2s0,.2-.2.2h-.1c-.5,1.8-1.8,3.9-2,3.9s-.1,0-.1-.1,0,0,0,0c.8-1.5,1.3-2.8,1.5-3.8v-.5ZM156.7,61.2c0,0,0-.1.1-.1s0,0,0,0c1.3,1.7,1.8,3.2,1.8,3.8s-.3.6-.3.6c-.2,0-.3-.2-.3-.3-.2-1.5-.7-2.8-1.4-3.9,0,0,0,0,0,0Z"/>
            <path class="cls-2" d="M165.4,60.1c-1.2,1.7-2.5,2.6-2.6,2.6s0,0,0,0,0,0,0-.1c1-.9,1.8-2,2.5-3.1l.8-1.4h-3.3v-.4c0,0,3.4,0,3.4,0,.4-.9.5-1,.6-1.5l.7.2c.1,0,.2.1.2.2,0,.2,0,.2-.3.2s0,0-.1,0l-.4.9h5l.8-.6.8.6c0,0,0,.1,0,.2,0,.2-.1.2-.3.2h-6.6c-.3.5-.6,1.1-1,1.6l.2.2h5.1l.3-.3.5.4c0,0,.2.2.2.3s0,.2-.2.2-.1,0-.1.1v6c0,.3-.2.6-1.1.7v-.3c-.2-.1-.5-.2-.9-.4,0,0-.1,0-.1-.1,0,0,0,0,.1,0h0c.4,0,.7,0,1,0s.4,0,.4-.3v-1.9h-5v2.8c0,.1-.1.2-.5.3,0,0-.1,0-.1-.3v-6.8ZM166,60.1v1.6h5v-1.6h-5ZM166,62v1.7h5v-1.7h-5Z"/>
            <path class="cls-2" d="M178.4,62.5c0,.7-.2,1.4-.3,2-.3,1.3-.8,2.5-1,2.5s0,0,0,0,0,0,0,0c.7-1.8.8-3.9.8-6.1v-3.6l.6.3c1.2-.3,2.6-1.1,2.8-1.4l.5.2c0,0,.2.1.2.2s0,.2-.2.2h-.3c-.7.4-1.9.9-3.1,1.1v1.5h2.7l.3-.3.5.4s0,0,0,.1,0,.2-.2.2c0,0-.2,0-.1.1v3.3c0,.1-.2.2-.4.2s-.2,0-.2-.2v-.5h-2.8ZM178.4,59.6v2.6s2.7,0,2.7,0v-2.6h-2.7ZM183.5,60.8c0,1.5-.2,2.8-.6,3.8-.6,1.5-1.7,2.5-1.8,2.5s0,0,0,0,0,0,0,0c1.6-1.8,1.9-4,1.9-6.1v-3.7l.7.4c1.7-.5,2.7-1.2,2.9-1.5l.5.2c0,0,.2.1.2.2s0,.2-.2.2h-.2c-1,.6-2.5,1-3.3,1.2v2.3h2.9l.7-.6.7.5c0,0,.1.2.1.2,0,.2-.1.2-.2.2h-1.5v6.6c0,.1-.3.2-.5.2s-.1,0-.1-.2v-6.6h-2.2v.4Z"/>
            <path class="cls-2" d="M192.2,56.2l.6.6h8l.3-.4.6.4s0,0,0,.1c0,.1,0,.2-.2.2,0,0-.1,0-.1.1v9.7c0,.2-.3.2-.4.2s-.2,0-.2-.2v-.8h-8.1v.8c0,.2-.2.2-.5.3,0,0-.1,0-.1-.3v-10.7ZM192.8,65.7h8.1v-8.6h-8.1v8.6ZM194.7,59l.6.4h3l.3-.3.6.4s0,0,0,.1,0,.2-.2.2c0,0-.1,0-.1.1v4.1c0,.2-.3.2-.4.2s-.2,0-.2-.2v-.8h-3v.7c0,.2-.3.2-.4.2s-.2,0-.2-.3v-5ZM195.3,62.8h3v-3.1h-3v3.1Z"/>
            <path class="cls-2" d="M207.5,57.4v1.7c0,3.1-.3,5-.8,6.3-.2.5-.7,1.5-.9,1.5s0,0,0-.1,0,0,0,0c.7-1.5,1.1-3.1,1.1-7.7v-2.5l.5.4h4v-1.1h.6c.2.1.3.2.3.3s0,.2-.2.2c0,0-.1.1-.1.2v.4h3.4l.6-.5.6.4c0,0,.1.2.1.2,0,.1,0,.2-.3.2h-8.9ZM207.6,66c.5-.3,1-.6,1.2-1.3,0,0,0,0,0,0s0,0,0,0c0,.3-.7,2-1.4,2s-.3,0-.3-.3,0-.2.3-.3ZM208.8,60.2c-.5.5-.9.9-1,.9s0,0,0,0,0,0,0-.1c.6-.6,1.5-1.9,1.7-3l.7.2c.1,0,.2.1.2.2,0,.2-.1.2-.3.2s-.1,0-.1,0c-.2.3-.4.7-.6,1,.2,0,.3,0,.3.2s0,.1-.1.1c0,0-.1.1-.1.2v3.9c0,.1,0,.1-.4.2,0,0-.1,0-.1-.2v-3.6ZM211,59.9c-.4.5-1,1-1.2,1s0,0,0,0,0,0,0-.1c1-1,1.5-2.2,1.7-2.7v-.3c0,0,.7.2.7.2.1,0,.2,0,.2.2,0,.2-.1.2-.3.2s0,0-.1,0l-.4.8h0s1.8,0,1.8,0l.2-.5v-.5c.1,0,.1-.3.1-.3h.6c.1.1.2.2.2.2s0,.1-.3.2l-.3.6-.2.3h1.1l.7-.5.6.4c0,0,.1.2.1.2,0,.1,0,.2-.3.2h-2.1v.9h.6l.7-.5.6.4c0,0,.1.1.1.2,0,.1-.1.2-.2.2h-1.7v.9h.6l.7-.5.6.4c0,0,.1.2.1.2,0,.2-.2.2-.2.2h-1.7v1h1.2l.7-.5.6.4c0,0,.1.2.1.2s0,.2-.2.2h-4.5v.4c0,0,0,.1-.1.2-.4.1-.5.2-.5-.2v-3.9ZM210,64.2l.8.2c0,0,.1,0,.1.2s0,.2-.2.2c-.1,0-.2,0-.2.2v1.3c0,.1,0,.2.2.2h2.9c.3,0,.6-.2.6-.6l.2-.7c0,0,0,0,.1,0s.1,0,.1.1v.8c0,.3,0,.4.2.5.1,0,.2.2.2.3,0,.2-.2.3-.4.4h-4.4c-.3-.1-.3-.2-.3-.5v-2.3ZM213,65.4c0,.2-.2.2-.3.2s-.2,0-.3-.1c-.4-.7-.9-1-1.1-1.1,0,0,0,0,0,0,0,0,0-.1.1-.1.3,0,1.3.6,1.5.9v.3ZM213.3,60.5v-.9h-1.7v.9h1.7ZM211.6,60.8v.9h1.7v-.9h-1.7ZM211.6,62.1v1h1.7v-1h-1.7ZM215,64.6s0-.1.1-.1c.3,0,1.6,1.2,1.6,1.8s0,.4-.3.4-.3-.1-.3-.2c0-.3-.4-1.3-1-1.7,0,0,0,0,0,0Z"/>
            <path class="cls-2" d="M227.2,61.6c0,.7-.7,1.5-1.5,1.5s-1.5-.7-1.5-1.5.6-1.5,1.5-1.5,1.5.6,1.5,1.5ZM225.7,60.5c-.6,0-1,.4-1,1s.4,1,1,1,1-.5,1-1,0-.5-.3-.7c-.2-.2-.5-.3-.7-.3Z"/>
          </g>
        </g>
      </g>
    </g>
  </g>
</svg>