<?xml version="1.0" encoding="UTF-8"?>
<svg xmlns="http://www.w3.org/2000/svg" version="1.1" viewBox="0 0 157.6 233.8">
  <defs>
    <style>
      .cls-1 {
        isolation: isolate;
      }

      .cls-2 {
        fill: none;
        stroke: #fff;
        stroke-miterlimit: 10;
        stroke-width: .5px;
      }

      .cls-3 {
        fill: #fff;
      }
    </style>
  </defs>
  <!-- Generator: Adobe Illustrator 28.7.3, SVG Export Plug-In . SVG Version: 1.2.0 Build 164)  -->
  <g>
    <g id="_圖層_1" data-name="圖層_1">
      <g id="_レイヤー_2">
        <polyline class="cls-2" points="157.3 164.8 157.3 .3 119.3 .3 119.3 173.5 157.3 173.5"/>
        <polyline class="cls-2" points="98.3 138.6 98.3 .3 60.3 .3 60.3 147.3 98.3 147.3"/>
        <polyline class="cls-2" points="38.3 225.6 38.3 .3 .3 .3 .3 233.6 38.3 233.6"/>
        <g class="cls-1">
          <g class="cls-1">
            <path class="cls-3" d="M143.8,12.3l1.1-1,1.1.8c.1.1.2.3.2.4,0,.2-.2.3-.4.3h-12.2l-1,1.6c-1.1,1.7-2.4,2.7-2.5,2.7s-.1,0-.1-.2,0-.1,0-.2c1.9-2,3.3-4.8,3.6-6.5l1,.3c.2,0,.3.2.3.3,0,.3-.2.3-.4.3s-.1,0-.1,0l-.5,1.1h9.9ZM133,24.4l-.3,1.1c0,0-.2.2-.4.2s-.5-.2-.5-.4,0,0,0,0c.8-2.8,1.3-5.3,1.3-5.4h-2.7v-.5c-.1,0,2.8,0,2.8,0,.3-1.8.6-3.5.7-4.9l.8.6h7.9l.5-.5.7.6c0,0,.1.1.1.2,0,.1-.1.3-.3.3-.1,0-.2.1-.2.3l-.3,3.4h1l1.1-1,1.2.9c0,0,.1.2.1.3,0,.2-.1.4-.4.4h-3l-.3,1.9-.4,2.1h1.3l1.1-1,1.1.8c.1.1.2.2.2.3,0,.2-.2.3-.4.3h-3.5l-.3.9c-.6,1.2-1.2,1.6-2.3,1.7,0-.8-.9-.9-1.3-1,0,0-.1,0-.1-.2s0-.2.2-.2h0c.8.2,1.4.3,1.7.3s.2,0,.2,0c.3-.2.5-.5.8-.9l.2-.6h-8.4ZM133.9,19.8l-.3,1.5-.6,2.5h8.4l.4-1.9.3-2.1h-8.3ZM142.2,19.3l.3-3.7h-7.9l-.6,3.7h8.2ZM139.5,22.9c0,.1,0,.4-.4.4s-.1,0-.4-.2c-1-1.4-2-2.1-2.5-2.2,0,0-.1,0-.1-.1,0-.2.1-.2.2-.2.4,0,2.5.9,3.1,1.9v.4ZM139.8,18.5c0,.3-.3.4-.4.4s-.3,0-.4-.2c-1.1-1.6-2.1-2-2.4-2.1,0,0-.1,0-.1-.1,0-.1,0-.2.2-.2.5,0,2.4.9,3.1,1.8v.5Z"/>
            <path class="cls-3" d="M143,38.6l1.2-1,1.1.9c0,0,.1.2.1.3,0,.3-.2.3-.4.3h-6.3c0,2-.2,3.7-.3,5h5.6l1.1-1,1.2.9c0,0,.1.1.1.3,0,.2-.2.4-.4.4h-7.4c1,4.1,3.2,7.1,7.9,8.6,0,0,0,0,0,.1s-.2.1-.4.1-.5.1-.6.4c0,.2-.2.3-.3.3h0c-4-1.7-6.2-5.3-7-9.2v.8c-1.5,6-5.9,7.9-7.9,8.4,0,0,0,0,0,0-.1,0-.1-.1-.1-.1,0,0,0-.1.1-.1,1.2-.5,2.3-1.2,3.3-2,1.8-1.4,3-3.4,3.8-6.2l.2-.9h-7.1v-.5c-.1,0,7.2,0,7.2,0,.1-1.2.2-2.9.2-5h-6.1v-.5c-.1,0,11.3,0,11.3,0Z"/>
            <path class="cls-3" d="M130.6,67.3l.8.7h1l.5-1.6.2-1.4v-.6h1.1c.2.1.3.2.3.3s0,.2-.2.3h-.3c0,.1-.6,1.7-.6,1.7l-.6,1.2h2.4l.4-.6.8.5c0,0,0,0,0,.2,0,.2-.2.3-.3.3-.1,0-.2.1-.2.2v10.6c0,0,0,.2-.2.2-.6.1-.7.1-.7-.2v-1.1h-3.7v1.7c0,.2-.2.3-.7.4-.1,0-.2-.1-.2-.4v-12.5ZM131.5,72.9h3.7v-4.4h-3.7v4.4ZM131.5,77.6h3.7v-4.2h-3.7v4.2ZM140.9,79.3c.9.3,1.6.5,1.9.5s.8-.6.9-1c.2-.5.9-3.2.9-10.3h-5.4l-.2.6c-.9,2-2,3.4-2.2,3.4s-.1,0-.1-.1,0-.1,0-.2c1.7-2.7,2.6-5.8,2.6-7.6h1c.2,0,.3.2.3.3s0,.3-.2.3-.2,0-.2.1c-.2.9-.5,1.9-.8,2.7h5.2l.5-.5.7.6c0,0,.1.2.1.3,0,.1-.1.2-.2.2-.2,0-.2.1-.2.9,0,4.8-.5,8.5-1,9.6-.6,1.4-1.2,1.8-2.3,1.9,0-.7-.7-1-1.5-1.2,0,0-.1,0-.1-.1s0-.2.2-.2h0ZM138.9,71.5c0,0,0-.2.1-.2.4,0,2.6,2.3,2.6,3.4s0,.6-.4.6-.4-.3-.5-.4c-.3-1.5-1-2.7-1.8-3.3,0,0,0,0,0-.1Z"/>
            <path class="cls-3" d="M131.9,97.2c-.8,1.5-1.9,2.9-2,2.9s-.1,0-.1-.1,0-.1,0-.2c2.1-3.1,3-6.7,3-8.4h1c.3.1.4.2.4.4s0,.2-.2.3c-.1,0-.2,0-.2.1-.3,1.3-.7,2.6-1.2,3.8.6.2.7.2.7.3s0,.2-.2.2c-.1,0-.2.2-.2.2v11.1c0,.3-.6.3-.7.3-.1,0-.2-.1-.2-.3v-10.6ZM140.5,107.9c0,.2-.4.3-.7.3s-.2-.1-.2-.3v-6.2l-.8,1.2c-1.8,2.6-4.6,3.6-4.7,3.6s-.1,0-.1-.1,0-.1,0-.1c1.6-.8,4.1-3,5-5.6h-5.1v-.5c-.1,0,5.6,0,5.6,0v-2.7h-2.6v.6c0,.3-.5.3-.6.3s-.3-.1-.3-.4v-6.2l.8.5h6.2l.5-.5.8.5c0,0,.1.1.1.2s0,.3-.3.3c-.1,0-.2.1-.2.2v5.1c0,.2-.4.4-.6.4s-.3-.1-.3-.4v-.7h-2.6v2.7h3.7l1.1-1,1.2.9c0,0,.1.1.1.3,0,.2-.1.4-.4.4h-5.4c.8,1.6,1.7,2.8,2.6,3.6.9.8,1.9,1.4,2.9,1.7.1,0,.2,0,.2.1s-.1.1-.4.2c-.2,0-.4.1-.5.3,0,.1-.1.2-.2.2s0,0-.1,0c-2.3-1.4-3.8-3.6-4.8-5.8v7.1ZM137,92.8v4h6.1v-4h-6.1Z"/>
            <path class="cls-3" d="M142.4,131.9c.5-.3,1-.7,1.3-1l.7.6c0,0,.1.1.1.2s0,.2-.2.2-.2,0-.3,0,0,0,0,0l-1.4.6-1.3.4h0c1.3.7,2.4,1,4.6,1.1,0,0,.1,0,.1.1s-.1.2-.4.2c-.3,0-.5.2-.5.5,0,.2-.1.3-.2.3-.8-.1-1.5-.3-2.3-.6-2-.6-3.5-2-4.4-3.8h-3.7v2.6h0l3.7-.8c.1,0,.3,0,.3.2s0,.2-.2.3c-.9.4-1.9.7-3,.9l-2.9.6c0,0-.1,0-.1.2h0c0,.3-.1.4-.3.4s-.3-.1-.4-.4l-.3-1,2.4-.3v-6.7c-2,1.5-3.6,1.9-3.7,1.9,0,0-.1,0-.1-.2s0-.1.1-.2c1.6-.6,3.9-2.2,4.8-4h-4.4v-.5c-.1,0,7.2,0,7.2,0v-1.2h-5.2v-.5c-.1,0,5.2,0,5.2,0v-1.3h-6.4v-.6c-.1,0,4.3,0,4.3,0,0-.1-.4-1.1-1.1-1.6,0,0-.1,0-.1-.1,0,0,0-.2.2-.2.3,0,1.8.8,1.8,1.6s0,.1,0,.3h3.7c.3-.6.5-1.2.5-1.8l.9.2c.2,0,.3.2.3.3s0,.3-.3.3-.2,0-.3.1l-.7.8h2.1l1.1-.9,1.2.8c0,0,.1.2.1.3,0,.2-.2.4-.4.4h-6.1v1.3h3.8l1-.8.9.7c0,0,.1.2.1.3s0,.4-.4.4h-5.5v1.2h5.4l1.1-1,1.2.9c0,0,.1.1.1.3,0,.2-.2.4-.4.4h-4.6c1.1,1.2,2.5,2.2,4.9,2.7.1,0,.2,0,.2.1s-.1.2-.3.2c-.2,0-.3.2-.4.4,0,.1-.1.2-.2.2s0,0,0,0c-2.6-1.1-3.8-2.6-4.6-3.6h-5.1c-.4.8-.9,1.5-1.7,2.1l.4.3h7l.3-.5.8.6c.1,0,.2.1.2.2s0,.3-.2.3c-.1,0-.2.1-.2.2v3.5c0,.2,0,.2-.6.4-.3,0-.3-.2-.3-.7h-2.6c.5.9,1.1,1.4,1.9,2l1.5-.7ZM134.7,127.2v1.2h6.8v-1.2h-6.8ZM134.7,129v1.1h6.8v-1.1h-6.8ZM138.5,125.2l1-.8.9.7c0,0,.1.1.1.3,0,.4-.3.4-.4.4h-4.4v-.6c-.1,0,2.6,0,2.6,0Z"/>
            <path class="cls-3" d="M138.8,160.5c1.3.4,2.4.4,3.2.4,1.3,0,2.7-.1,4.3-.3,0,0,.1,0,.1.1s-.1.2-.3.3c-.2,0-.3.3-.4.5,0,.2,0,.3-.2.3-1,0-1.9,0-2.7,0-2.1,0-4-.2-5.3-1-1.6-1-2.7-2.5-3.5-4.2-.3,1.4-.8,2.4-1.3,3.1-1,1.3-2.5,2.2-2.6,2.2s-.2,0-.2-.2,0,0,0-.1c1.6-1.2,2.9-2.8,3.3-6.2v-.6l1.1.2c.2,0,.3.1.3.3s-.1.2-.3.3c-.2,0-.2,0-.3.4.5,1,1.6,3.1,3.6,4.2v-6.2h-7.7v-.5c-.1,0,13.8,0,13.8,0l1.1-1,1.2.9c0,0,.1.2.1.3,0,.3-.2.3-.4.3h-7.2v2.6h3.7l1.1-1,1.1.8c.1.1.2.3.2.4,0,.2-.2.3-.4.3h-5.7v3.5ZM142.1,145.9l.5-.5.8.5c0,0,.1.1.1.2s0,.3-.3.3c-.1,0-.2.1-.2.2v5.4c0,.1,0,.2-.2.3-.5.1-.7.2-.7-.3v-.6h-8.2v.6c0,0,0,.2-.2.2-.6.1-.7.2-.7-.3v-6.7l.8.5h8.3ZM134,146.5v2h8.2v-2h-8.2ZM134,149v1.9h8.2v-1.9h-8.2Z"/>
          </g>
        </g>
        <g class="cls-1">
          <g class="cls-1">
            <path class="cls-3" d="M71.2,22.8v-.5c-.1,0,1.8,0,1.8,0l-.6-9.9,1,.5,1.2-.6c.9-.6,1.1-.8,1.4-1.1l.7.6c.1,0,.2.2.2.2s0,.2-.2.2-.2,0-.3,0,0,0,0,0l-1.5.7-1.4.4v2.6h1.2l1-1,.9.9c0,0,.1.2.1.3,0,.2-.2.4-.4.4h-2.7l.2,2.8h.8l1-1,.9.9c0,0,.1.2.1.3,0,.2-.1.4-.4.4h-2.4l.2,2.5h2.9c.5-1.5.7-2.9.8-4.1h1c.2,0,.3.1.3.2,0,.1,0,.2-.2.3-.1,0-.2.2-.2.4-.2,1-.5,2.1-.8,3.2h2.1l.9-5.9h-2.7v.5c-.1.3-.6.4-.7.4s-.3,0-.3-.2,0-.2,0-.3c.3-1,.4-1.9.5-2.6l.2-2.1v-.8h1c.2.2.3.3.3.4s0,.2-.2.3c-.1,0-.3.2-.3.3v1.1c-.1,0,1.3,0,1.3,0l1-1,.9.9c0,0,.1.2.1.3,0,.2-.1.4-.4.4h-3.2v.6c0,0-.4,1.4-.4,1.4h2.6l.5-.5.6.6c.1.1.2.2.2.3s0,.3-.2.3c-.1,0-.2.1-.2.3l-.8,5.4h3.6l.3-2.4h-2.1v-.6c-.1,0,2.1,0,2.1,0l.3-2.8h-2.2v-.5c-.1,0,2.3,0,2.3,0l.3-2.9h-2.9v-.5c-.1,0,2.9,0,2.9,0l.5-.5.6.6c.1,0,.2.2.2.4s0,.2-.2.3c-.1,0-.2.1-.2.3l-.9,8.8h.2l1-1,.9.9c0,0,.1.2.1.3,0,.2-.1.4-.4.4h-15.9ZM77.4,24.7c-.5.5-1.8,1.6-3.6,2.2-.8.3-1.5.5-2.2.6-.2,0-.2,0-.2-.1s0-.1.1-.1c3.2-1,4.4-2.2,5.3-3.5l.9.4c.2,0,.2.2.2.3s-.2.2-.3.2h-.3ZM80.9,24c0,0,0-.2.1-.2.3,0,5.3,1.9,5.3,3.3s-.2.5-.4.5,0,0-.4-.2c-.8-.9-2.1-2.2-4.6-3.3,0,0-.1,0-.1-.2Z"/>
            <path class="cls-3" d="M73.6,40l.9.8h3.2l.4-1.2.2-1v-.6h1.1c.2.1.3.2.3.3s0,.2-.2.3h-.2c0,.1-.6,1.4-.6,1.4l-.5.8h5.7l.5-.6.8.5c0,0,0,0,0,.2,0,.2-.2.3-.3.3-.1,0-.2.1-.2.2v12.7c0,0,0,.2-.2.2-.6.1-.7.2-.7-.2v-.7h-9.4v.8c0,.2-.2.3-.7.4-.1,0-.2-.1-.2-.4v-14.2ZM74.5,41.3v3.3h9.4v-3.3h-9.4ZM74.5,45.2v3.5h9.4v-3.5h-9.4ZM74.5,49.3v3.6h9.4v-3.6h-9.4Z"/>
            <path class="cls-3" d="M83.7,65.9l.5-.5.8.5c0,0,.1.1.1.2s0,.3-.3.3c-.1,0-.2.1-.2.2v6.5c0,.1,0,.2-.2.3-.6.1-.7.2-.7-.3v-1.1h-9.9v7.9c0,0,0,.4.5.4h10.5c.7,0,1-.8,1-1.1l.3-1.1c0,0,0-.1.2-.1s.1,0,.1.2v1.2c-.2.1-.2.3-.2.4,0,.2,0,.3,0,.4.2,0,.2.2.2.4,0,.2-.2.7-.7.7h-12.1c-.2,0-.8,0-.8-.9v-9.5l.9.6h9.9v-5.1h-11.5v-.6c-.1,0,11.5,0,11.5,0Z"/>
            <path class="cls-3" d="M70.9,96.5v-.6c-.1,0,2.9,0,2.9,0v-4.1l.9.2c.3,0,.4.1.4.3s0,.3-.2.3c-.1,0-.2.2-.2.3v3h1.4v-4.1l.9.2c.3,0,.4.1.4.3s0,.3-.2.3c-.1,0-.2.2-.2.3v3h.8c.2-.4.4-.9.6-1.4l.4-1.6v-.6c0,0,1,.2,1,.2.2,0,.3.2.3.3,0,.1-.1.2-.2.2s-.2,0-.3.2c-.1.5-.4,1.1-.6,1.7l-.6,1h.4l1-1,.9.8c0,0,.1.2.1.3,0,.2-.1.4-.4.4h-9.4ZM76.5,100l.5-1.2.3-1.1v-.5l1.1.2c.2,0,.3.1.3.3s0,.2-.2.2h-.3c0,.1-.6,1.4-.6,1.4l-.5.7h.7l1-1,.9.9c0,0,.1.2.1.3,0,.1-.1.4-.4.4h-3.5v2.6h1.5l1-1,.9.9c0,0,.1.2.1.3s-.1.4-.4.4h-3.2v2.6l4.1-.8c.1,0,.2,0,.2.2s0,.3-.2.3c-1.2.4-2.5.8-3.9,1.1l-3.8.7c-.1,0-.1,0-.1.3s0,.2-.3.2-.3-.1-.4-.4l-.3-1c1.3,0,2.6-.2,3.9-.4v-2.8h-3.2v-.5c-.1,0,3.2,0,3.2,0v-2.6h-3.6v-.5c-.1,0,5.1,0,5.1,0ZM72.2,95.5v-.3c-.1-.7-.3-1.8-.8-2.3,0,0,0,0,0,0,0,0,0-.1.2-.1.3,0,1.4,1.6,1.4,2.4s0,.6-.4.6h-.3ZM74.1,99.6c0,.1-.2.2-.3.2-.2,0-.5,0-.5-.4,0-.5-.3-1.4-.9-2.1,0,0,0,0,0-.1,0,0,0-.1.1-.1.4,0,1.7,1.5,1.7,2v.5ZM85.3,107.5c0,.2-.2,1-1.7,1.2,0-.5-.5-.9-1.2-1.2-.1,0-.2-.1-.2-.2s0-.1.2-.1l1.6.2h.3s0-.3,0-.3v-9.4h-4.5v-.5c-.1,0,4.5,0,4.5,0v-5.2h.9c.3.1.5.3.5.4s0,.3-.3.3c-.2,0-.2.1-.2.2v4.3h.3l1-1,.9.9c0,0,.1.2.1.3s-.1.4-.4.4h-2v9.8ZM81.5,102.7c0-1.2-.4-2.4-.9-3,0,0,0,0,0-.1,0,0,0-.1.2-.1.3,0,1.7,2,1.7,3.1v.5c-.2.1-.3.2-.5.2h-.3c0-.1-.1-.5-.1-.5Z"/>
            <path class="cls-3" d="M75.9,122.4l1-.8.9.7c0,0,.1.2.1.3,0,.3-.2.3-.4.3h-6.5v-.5c-.1,0,4.8,0,4.8,0ZM71.5,129.5l.8.5h3.3l.5-.5.8.5c0,0,.1.1.1.2,0,.1-.1.3-.3.3-.1,0-.2.1-.2.2v4.6c0,.1,0,.2-.2.3-.6.1-.7.2-.7-.3v-.7h-3.2v.8c0,0,0,.2-.2.2-.6.1-.7.2-.7-.3v-5.9ZM75.1,120l1-.8.9.7c0,0,.1.2.1.3,0,.2-.1.4-.4.4h-5.1v-.6c-.1,0,3.3,0,3.3,0ZM74.9,124.9l1-.8.9.7c0,0,.1.2.1.3,0,.2-.2.3-.4.3h-4.9v-.5c-.1,0,3.2,0,3.2,0ZM74.9,127.5l1-.8.9.7c0,0,.1.2.1.3,0,.2-.2.4-.4.4h-4.8v-.6c-.1,0,3.1,0,3.1,0ZM72.4,134.1h3.2v-3.5h-3.2v3.5ZM78.6,128.3l.8.6h2.5v-3.7h-4.1v-.5c-.1,0,4.1,0,4.1,0v-3.4h0c-1.4.3-2.5.4-3.4.4s-.2,0-.2-.2,0-.2.1-.2c2.4,0,6-1.4,6.8-2.2l.7.5c.1,0,.2.2.2.3s0,.3-.3.3-.4,0-.4,0c-.8.4-1.7.7-2.6.9v3.7h2.6l1-.8.9.7c0,0,.1.1.1.3,0,.3-.1.4-.4.4h-4.3v3.7h2.5l.5-.5.8.5c0,0,.1.1.1.2s0,.3-.3.3c-.1,0-.2.1-.2.2v5.9c0,.1,0,.2-.2.3-.6.1-.7.2-.7-.3v-.9h-5.8v.8c0,0,0,.2-.2.2-.6.1-.7.2-.7-.3v-7.1ZM79.5,129.4v4.7h5.8v-4.7h-5.8Z"/>
          </g>
        </g>
        <g class="cls-1">
          <g class="cls-1">
            <path class="cls-3" d="M24.9,17.4l1.2-1,1.1.9c0,0,.1.2.1.3,0,.3-.2.3-.4.3h-8.6v5.8l1.4-.4c.1,0,.3,0,.3.2s0,.2-.2.3l-1.5.5v3.1c0,.3-.6.3-.7.3-.1,0-.2-.1-.2-.3v-2.8l-1.4.4-3.7.8c0,0-.1,0-.1.2v.2c0,.2-.1.2-.3.2s-.3-.1-.4-.4l-.4-1,1.9-.2v-6.9h-1.9v-.5c-.1,0,13.7,0,13.7,0ZM14,18v1.7h3.4v-1.7h-3.4ZM14,20.2v1.7h3.4v-1.7h-3.4ZM14,22.5v2.2l1.3-.2,2.1-.5v-1.5h-3.4ZM23.4,11.5l.5-.5.8.5c0,0,.1.1.1.2s0,.3-.3.3c-.1,0-.2.1-.2.2v4.3c0,.1,0,.2-.2.3-.6.1-.7.2-.7-.3v-.6h-8.4v.7c0,0,0,.2-.2.3-.6.1-.7.2-.7-.3v-5.6l.8.5h8.5ZM15,12.1v1.4h8.4v-1.4h-8.4ZM15,14v1.4h8.4v-1.4h-8.4ZM24.7,19.5l.5-.4.7.6c.1,0,.2.1.2.3s0,.3-.2.3c-.1,0-.2,0-.2.2-.4,1.2-1.2,2.6-2.2,3.9.6.5,1.5,1.2,3.6,1.6h0c0,.2-.1.2-.4.2-.3,0-.5.2-.6.4,0,.2-.2.3-.3.3s-1.9-.6-3-2c-1.6,1.7-3.2,2.4-3.2,2.4,0,0-.2-.1-.2-.2s0,0,0-.1c1.1-.8,2.1-1.7,2.9-2.6-1-1.2-1.6-2.6-2-4.4h-1.1v-.5c-.1,0,5.4,0,5.4,0ZM20.8,20.1c.4,1.5,1,2.7,2.1,3.8.8-1.1,1.5-2.4,1.8-3.8h-4Z"/>
            <path class="cls-3" d="M13.4,45.6h-2.2v-.5c-.1,0,2.2,0,2.2,0v-4.8h-2.4v-.6c-.1,0,4.1,0,4.1,0l1-1,.9.8c0,0,.1.2.1.3s-.1.4-.4.4h-2.5v4.8h.4l1-1,.5.5c1.9-1.3,4.4-4.2,4.7-6.5l1,.2c.2,0,.3.1.3.3,0,.2-.2.2-.4.2.8,1.6,1.7,2.8,2.6,3.6.9.8,2,1.5,3.1,1.8,0,0,.1,0,.1.1s-.1.1-.3.2c-.2,0-.4.1-.5.3,0,.1-.1.2-.2.2s0,0-.1,0c-2.6-1.6-4-3.9-4.9-5.7-1.2,2.6-3,4.4-5.1,5.6.2.2.3.2.3.4s-.1.4-.4.4h-2.1v4.9c.8-.4,1.7-.8,2.4-1.3,0,0,0,0,.1,0,.1,0,.2.1.2.2,0,.3-2.5,2.1-5,2.9,0,0,0,.1,0,.3s-.2.4-.3.4-.2-.1-.3-.4l-.5-1.1h.9c0-.1,1.6-.6,1.6-.6v-5.2ZM25.9,49.6c.1,0,.2.2.2.3,0,.2-.1.2-.6.3-2.3,1.9-4,2.8-6.3,3.6-1.4.4-2.6.7-3.7.8-.1,0-.2,0-.2,0,0,0,0-.2.1-.2,5.9-1.3,8.1-3.5,9.6-5.2l.9.5ZM22,44.3c-.4.4-.8.9-1.3,1.3-1.5,1.3-3.9,2-3.9,2-.1,0-.2,0-.2-.1s0-.1.1-.1c1.3-.6,3.7-1.9,4.6-3.9l1,.3c.2,0,.3.1.3.3s0,.3-.3.3h-.3ZM23.8,47.3c-.5.5-1.1,1-1.7,1.5-1.8,1.4-4.9,2.2-5,2.2s-.1,0-.1-.1,0,0,.1-.1c4.1-1.5,5.7-3.5,6.2-4.4l.9.4c.2,0,.3.2.3.3s-.1.2-.3.2h-.3Z"/>
            <path class="cls-3" d="M11,70.9v-.6c-.1,0,7.7,0,7.7,0v-1.4h-4.1v.6c0,0,0,.2-.2.2-.6.1-.7.2-.7-.3v-3.8l.7.5h4.3v-1.2l.9.2c.3,0,.4.1.4.3s0,.3-.2.3c-.2,0-.2.2-.2.5h4.1l.4-.6.7.5c.1,0,.1.2.1.3,0,.1,0,.2-.2.2-.1,0-.2.1-.2.2v2.8c0,.2,0,.3-.7.4-.1,0-.2-.1-.2-.4v-.7h-4.1v1.4h5.6l1.1-.9,1.2.9c0,0,.1.1.1.3,0,.2-.1.4-.4.4H11ZM17.4,79.8c.1,0,.2.2.2.3s0,.3-.3.3-.3,0-.4,0c-.8.4-1.8.7-2.9,1-1.1.3-2.1.4-2.8.4s-.2,0-.2-.1,0-.2.1-.2c2.2-.1,4.9-1.3,5.5-2l.7.5ZM23.4,72.2l.5-.6.8.5c0,0,0,0,0,.2,0,.2,0,.3-.2.3s-.2.1-.2.2v6c0,.2-.1.2-.6.3-.3,0-.3-.1-.3-.7h-8.5v.5c0,0,0,.2-.2.3-.6.1-.7.1-.7-.3v-7.4l.8.5h8.6ZM18.7,66.7h-4.1v1.7h4.1v-1.7ZM14.8,72.7v1.3h8.5v-1.3h-8.5ZM14.8,74.6v1.4h8.5v-1.4h-8.5ZM14.8,76.5v1.4h8.5v-1.4h-8.5ZM19.6,68.4h4.1v-1.7h-4.1v1.7ZM22,79.6c2.1.2,4.1,1.1,4.1,1.6s-.1.5-.4.5-.3,0-.5-.2c-1-.6-2.6-1.3-4.6-1.7-.1,0-.2,0-.2-.2s0-.1.2-.1h1.3Z"/>
            <path class="cls-3" d="M11.6,94.9l.8.7h1l.5-1.6.2-1.4v-.6h1.1c.2.1.3.2.3.3s0,.2-.2.3h-.3c0,.1-.6,1.7-.6,1.7l-.6,1.2h2.4l.4-.6.8.5c0,0,0,0,0,.2,0,.2-.2.3-.3.3-.1,0-.2.1-.2.2v10.6c0,0,0,.2-.2.2-.6.1-.7.1-.7-.2v-1.1h-3.7v1.7c0,.2-.2.3-.7.4-.1,0-.2-.1-.2-.4v-12.5ZM12.5,100.5h3.7v-4.4h-3.7v4.4ZM12.5,105.2h3.7v-4.2h-3.7v4.2ZM21.9,106.9c.9.3,1.6.5,1.9.5s.8-.6.9-1c.2-.5.9-3.2.9-10.3h-5.4l-.2.6c-.9,2-2,3.4-2.2,3.4s-.1,0-.1-.1,0-.1,0-.2c1.7-2.7,2.6-5.8,2.6-7.6h1c.2,0,.3.2.3.3s0,.3-.2.3-.2,0-.2.1c-.2.9-.5,1.9-.8,2.7h5.2l.5-.5.7.6c0,0,.1.2.1.3,0,.1-.1.2-.2.2-.2,0-.2.1-.2.9,0,4.8-.5,8.5-1,9.6-.6,1.4-1.2,1.8-2.3,1.9,0-.7-.7-1-1.5-1.2,0,0-.1,0-.1-.1s0-.2.2-.2h0ZM19.9,99.1c0,0,0-.2.1-.2.4,0,2.6,2.3,2.6,3.4s0,.6-.4.6-.4-.3-.5-.4c-.3-1.5-1-2.7-1.8-3.3,0,0,0,0,0-.1Z"/>
            <path class="cls-3" d="M13.9,125.2c-.2,1.5-.6,2.9-1,4-.7,1.8-1.9,3-2,3s-.1,0-.1-.1,0-.1,0-.2c1-1.6,2.2-4.4,2.7-7.2h-2.3v-.5c-.1,0,2.7,0,2.7,0v-3.1c-1,.3-1.9.4-2.5.4-.1,0-.2,0-.2-.2s0-.2.1-.2c1.9-.2,4.5-1.3,5.3-2.1l.7.4c.1,0,.2.2.2.3s0,.3-.3.3-.3,0-.4,0c-.6.3-1.3.6-2.1.8v3.4h1l1-1,.9.9c0,0,.1.2.1.3,0,.2-.2.4-.4.4h-2.7v1c.7.4,1.9,1.4,2.2,2.2,0,.5,0,.7-.2.7-.4,0-.5,0-.6-.3-.3-.6-.6-1.2-.9-1.6l-.5-.6v9.2c0,.3-.7.3-.7.3-.1,0-.2-.1-.2-.3v-10.2ZM19.8,123.2l1.2.3c.1,0,.2.1.2.3s-.1.2-.3.3c-.2,0-.2.1-.2.2v6.2l.7-.9c2.1-3.2,2.9-6.5,3.2-8.4v-.8c0,0,1.2.3,1.2.3.2,0,.3.2.3.3s0,.3-.3.3c-.1,0-.3,0-.3.1-.7,2.9-1.9,5.9-3.6,8.4l-1.4,1.7v2.6c0,.2,0,.2.3.3h3c.6,0,.9-.4,1-1.2l.2-1.4c0,0,0-.1.2-.1s.2,0,.2.2v1.5c0,.5,0,.8.3,1,.2,0,.3.2.3.4,0,.3-.2.4-.6.6h-5.1c-.4-.2-.5-.3-.5-.8v-2l-.6.5c-1.6,1.4-3.7,2.4-3.8,2.4s-.1,0-.1-.1,0,0,0-.1c1.3-.8,2.4-1.7,3.5-2.6l1-1v-8.4ZM18.3,126.6c.1,0,.1.1.1.3,0,2.8-1.2,4.8-1.9,4.8s-.5-.2-.5-.5.1-.3.3-.5c.7-.7,1.2-1.4,1.4-2,.2-.7.4-1.4.4-2,0,0,0-.1.1-.1ZM22.2,122.3c-.9-1.7-1.8-2.3-2.2-2.5,0,0-.1,0-.1-.1s0-.2.2-.2c.5,0,2.9,1.5,2.9,2.6s-.1.5-.4.5-.4-.2-.4-.3ZM27.4,130.9c0,.1-.2.2-.3.2-.3,0-.3,0-.5-.4-.1-1.5-.7-3.2-1.4-3.9,0,0,0,0,0-.1s0-.1.2-.1c.4,0,2.2,2.6,2.2,4v.5Z"/>
            <path class="cls-3" d="M13,148.7l-.2.7c-.2.8-.7,1.6-1.3,1.6s-.5-.5-.5-.5c0-.1.2-.3.4-.5.7-.6,1.2-1.3,1.3-2.6,0,0,0-.1.1-.1s.1,0,.1.1v.7s5.7,0,5.7,0v-2.3l.9.2c.3,0,.4.1.4.3s0,.3-.2.3c-.1,0-.2.2-.2.3v1.3h5.9l.6-.6.6.8c0,.1.1.2.1.3s0,.3-.3.3-.3,0-.3,0c-.1,0-.2,0-.3,0l-1.4,1.3s0,0,0,0c-.1,0-.2-.1-.2-.2s0,0,0,0c.4-.5.7-1,1-1.5h-12.4ZM16.6,156l-.3-.2v-.3c-1.9.9-4.6,1.8-4.9,1.8s-.1,0-.1-.1,0-.1.1-.1c2.5-.8,4.4-1.9,4.7-2.1v-4.6l1.2.3c.1,0,.2.1.2.3s-.1.2-.3.3c-.2,0-.2,0-.2.2v3c3.1-1.9,4.6-4.2,5.1-4.9l.9.3c.2,0,.3.2.3.3s0,.3-.3.3h-.3c-1.8,2.1-3.5,3.5-5.6,4.6h.3c0,0,4.9,0,4.9,0,.6,0,.8-.3,1-1l.3-1.2c0,0,0-.1.2-.1s.1,0,.1.2v1.2c0,.5,0,.7.2.8.2,0,.3.2.3.4s0,.3-.3.4c-.3.2-.4.2-.6.2h-6.8ZM14.1,150.9c0,0,.1,0,.1.2,0,1.1-1.1,3.8-2.1,3.8s-.5-.3-.5-.5,0-.3.4-.5c.6-.4,1.1-.9,1.3-1.3.3-.4.5-1,.6-1.5,0,0,0-.1.1-.1ZM14.5,161.8v.8c0,.3-.6.4-.7.4s-.2,0-.2-.2v-5.3h1c.3.2.4.3.4.4s0,.3-.3.3c-.2,0-.3.2-.3.3v2.6h4.4v-4.8l.9.2c.3,0,.4.1.4.3s0,.3-.2.3c-.1,0-.2.1-.2.3v3.7h4.2v-3.8h1c.3.2.4.3.4.4s0,.3-.3.3c-.2,0-.3.2-.3.3v4.1c0,.3-.6.4-.7.4s-.2,0-.2-.2v-1.1h-9.4ZM19.6,151.1c-.8-1.2-1.6-1.5-1.9-1.6,0,0-.1,0-.1-.2,0-.2.1-.2.2-.2.4,0,2.7.7,2.7,1.7s-.3.4-.4.4-.3,0-.4-.2ZM26.5,154.3c-.8-1.8-1.8-2.6-2.3-2.8,0,0-.1,0-.1-.1,0,0,0-.2.2-.2.5,0,3,1.9,3,3s0,.5-.4.5-.4-.1-.4-.3Z"/>
            <path class="cls-3" d="M11.5,173.8l1,.8h2.5l.4-.6.8.5s0,0,0,.2c0,.2,0,.3-.2.4-.1,0-.2.1-.2.2v11.6c0,.2-.4.3-.6.3s-.3-.1-.3-.3v-1.1h-2.6v1.7c0,.2-.2.3-.7.4-.1,0-.2-.1-.2-.4v-13.8ZM12.4,179.9h2.6v-4.7h-2.6v4.7ZM12.4,185.3h2.6v-4.9h-2.6v4.9ZM17.4,179.4v-.5c-.1,0,3.8,0,3.8,0v-2.9h-4.4v-.6c-.1,0,4.4,0,4.4,0v-2.4l.9.2c.3,0,.4.1.4.3s0,.3-.2.3c-.1,0-.2.1-.2.3v1.4h3l1.1-.9,1.2.8c0,0,.1.2.1.3,0,.2-.2.4-.4.4h-5v2.9h2.2l1.1-1,1.2.9c0,0,.1.2.1.3,0,.2-.1.4-.4.4h-8.9ZM23.4,182.2v-2.3h.9c.3.2.5.3.5.5s0,.3-.3.3c-.2,0-.2.1-.2.2v1.3h1l1.1-.9,1,.8c0,0,.1.2.1.3,0,.2-.1.4-.4.4h-2.9v5.7c0,.2-.1.5-.4.7-.2.2-.7.4-1.4.5,0-.7-.8-1-1.2-1.2-.1,0-.2-.1-.2-.2,0-.1.2-.1.2-.1l1.6.2h.3c0,0,0-.2,0-.3v-5.4h-6.5v-.6c-.1,0,6.5,0,6.5,0ZM20.4,186.5c0,.2-.3.3-.4.3-.3,0-.4-.2-.4-.3-.4-1.2-1-2.3-1.7-2.6,0,0,0,0,0-.1,0,0,0-.2.1-.2.4,0,2.2,1.5,2.4,2.5v.5Z"/>
            <path class="cls-3" d="M18.9,207.1v-7l.9.2c.3,0,.4.1.4.3s0,.3-.2.3c-.1,0-.2.1-.2.3v6h5.3l1.1-1,1.2.9c0,0,.1.2.1.3,0,.2-.2.3-.4.3h-5.8v7.6c0,0,.3,0,.3,0h4.1c.6,0,.7-.5.8-1v-1.2c.1,0,.2-.1.3-.1s.1,0,.1,0v1.3c0,.5,0,.8.3.8.2,0,.3.2.3.4s-.1.6-.7.7h-5.8c-.2,0-.5-.4-.5-.8v-7.8h-2.8c0,1.2-.2,4-1.5,5.7-1.6,2.2-4.6,3.2-4.6,3.2-.2,0-.2-.1-.2-.2s0-.1.1-.2c5.1-2.2,5.3-5.8,5.3-8.5h-5.2v-.5c-.1,0,7.5,0,7.5,0ZM14.7,202.3c.8.8,1.8,2.2,1.8,3.1s-.2.6-.5.6-.5-.2-.6-.8c-.1-.7-.6-2.1-1.7-3.6,0,0,0,0,0,0,0,0,0,0,0,0s0,0,.1,0l.9.9ZM24.1,201.3l1,.4c.2,0,.2.2.2.3,0,.2-.1.2-.5.3l-1.3,2.1c-.3.4-1.4,1.9-1.7,1.9s-.2,0-.2-.2,0,0,0-.1c1.1-1.4,2.1-3.4,2.3-4.2v-.5Z"/>
          </g>
        </g>
      </g>
    </g>
  </g>
</svg>