<?xml version="1.0" encoding="UTF-8"?>
<svg xmlns="http://www.w3.org/2000/svg" version="1.1" viewBox="0 0 159.8 354.1">
  <defs>
    <style>
      .cls-1 {
        fill: none;
        stroke: #fff;
        stroke-miterlimit: 10;
        stroke-width: 6px;
      }

      .cls-2 {
        fill: #646464;
      }
    </style>
  </defs>
  <!-- Generator: Adobe Illustrator 28.7.3, SVG Export Plug-In . SVG Version: 1.2.0 Build 164)  -->
  <g>
    <g id="_レイヤー_2">
      <line class="cls-1" x1="149.4" x2="149.4" y2="261.7"/>
      <line class="cls-1" x1="70.3" x2="70.3" y2="354.1"/>
      <g>
        <path class="cls-2" d="M102,25.9c-1.4,1.6-3,2.5-3.2,2.5s-.2,0-.2-.2,0-.2.2-.4c1.1-1.1,2.1-2.2,2.9-3.4,1.5-2.4,1.7-3.2,2-4.2l1.9.8c.4.1.5.4.5.6s-.1.5-.4.5-.4,0-.5,0c-.1,0-.2,0-.2.1l-.7,1.1h4.8l.4-.9.4-1.1.2-.9,1.7.6c.3.1.5.3.5.5s-.2.4-.5.4h-.5c0,.1-.9,1.2-.9,1.2l-.2.2h2.7l1.9-1.5,1.8,1.3c.2.2.4.5.4.7s-.1.6-.7.6h-5.6v2.8h1.5l1.9-1.5,1.8,1.3c.2.2.4.5.4.7,0,.4-.3.6-.7.6h-4.8v2.9h1.3l1.9-1.5,1.8,1.3c.2.2.4.5.4.7,0,.4-.3.7-.7.7h-4.6v2.8h1.7l1.9-1.5,1.8,1.3c.2.2.4.5.4.7s-.2.6-.7.6h-11.8v2.3c0,.3-.1.4-1.3.7-.3,0-.5-.2-.5-.7v-12.3ZM104.2,8.6v-2.4l1.8.2c.6,0,.8.2.8.6,0,.6-.4.7-.5.7-.4,0-.4,0-.4.9h4.7v-2.4l1.8.2c.6,0,.9.2.9.6,0,.6-.4.7-.5.7-.5,0-.5.1-.5.9h1.9l1.9-1.9,1.8,1.7c.1.1.2.4.2.5s-.2.7-.7.7h-5.1v2.7c0,.2-.2.4-.4.5-1.2.2-1.3.2-1.3-.5v-2.8h-4.7v2.8c0,.2-.2.4-.5.5-1.1.2-1.3.3-1.3-.5v-2.8h-4.5l-.3-1.1h4.7ZM100.5,12.7l1.5,1.1h3.7l.8-1.2,1.4,1c.2.1.3.4.3.6,0,.2-.2.4-.4.5-.2.1-.3.2-.3.4v4.9c0,.5-.1.5-1.3.8-.5,0-.5-.4-.5-1.7h-3.5v1.1c0,.2-.1.4-.4.5-1.2.3-1.4.3-1.4-.6v-7.2ZM102.2,14.8v3h3.5v-3h-3.5ZM108.7,27v-2.8h-5v2.8h5ZM103.7,28.1v2.9h5v-2.9h-5ZM103.7,32.1v2.8h5v-2.8h-5ZM109.4,12.9l1.3.9h3.8l.8-1.2,1.4,1c.2.1.3.4.3.6,0,.2-.2.4-.4.5-.2.1-.3.2-.3.4v5c0,.5-.1.5-1.3.8-.3,0-.5-.2-.5-.8v-1.1h-3.3c0,.8,0,.9-.4,1.1-1.1.3-1.3.3-1.3-.6v-6.7ZM111.1,14.8v3h3.3v-3h-3.3ZM123.9,25.6c.8,3.9,2.3,8.2,7,10.7.1,0,.2.2.2.3s-.5.2-.9.2-.7.2-.9.6c-.2.3-.3.5-.5.5s-1.8-1.8-2.8-3.3c-1.9-2.9-2.7-6-3.1-8.6-.2,1.5-.5,3.6-1.7,5.9-2,4.1-6.2,6.4-6.7,6.4s-.3-.1-.3-.3,0-.2.1-.2c4.1-2.7,6.1-7.1,6.6-10.2l.6-4.3.2-5.1v-1.9c-.1,0,2.2.4,2.2.4.5,0,.8.2.8.6s-.2.6-.5.6c-.3,0-.5.2-.5.4l-.2,3.9.5,3.4ZM121,14c-.7,2.6-3.4,6.6-3.9,6.6s-.3,0-.3-.3,0-.2,0-.3c1.3-2.1,2.3-4.3,2.9-6.6s1-4.3,1.1-6v-.9c0,0,2,.1,2,.1.5,0,.7.2.7.5s-.1.5-.4.5c-.3,0-.5.1-.5.2-.3,1.7-.8,3.4-1.3,5.1h6.8l.9-1.3,1.4,1.4c.4.2.6.5.6.8,0,.4-.3.6-.7.6s-.7.2-.8.4c-1.1,2.4-2.1,4.5-3,6.2,0,.1-.2.1-.3.1s-.1,0-.3-.4c1-2.3,1.8-4.6,2.1-6.9h-7Z"/>
        <path class="cls-2" d="M103.6,65.7h-4.7l-.2-1.1h4.9l.9-.9,1.6,1.1c.1,0,.2.2.2.4,0,.3-.2.5-.5.6-.2.1-.4.4-.4.6v7.1c1.7,2.1,3.1,3.3,6.8,3.9,3.5.4,8.7.6,12.1.6s4.3,0,6.2-.2h.2c0,.3-.2.5-.5.7-.4.2-.5.5-.5.7s-.1.5-.3.5c-3.8.1-6.8.2-9.2.2-6.4,0-12-.4-15.5-5.8,0,0-.1-.1-.2-.1s-.1,0-.1.1c-1.4,2.1-2.6,3.7-3.6,4.7,0,0,0,.2,0,.3v.5c0,.2,0,.4-.2.4s-.4-.1-.6-.4l-1.1-1.5c1.8-1,2.8-2,5-4.3v-7.8ZM105,60.1c0,.6-.5.8-1,.8-.2,0-.4-.2-.5-.4-.9-1.5-2.7-3.5-4.5-4.1-.1,0-.2-.1-.2-.2,0-.2.1-.4.4-.4.9,0,4.8,1.9,5.7,3.5l.2.9ZM106.8,53.6c0,.4-.4.7-.7.7s-.7-.1-.8-.4c-1.3-2.5-3.3-3.9-4.1-4.2-.1,0-.2-.1-.2-.2,0-.2.1-.4.4-.4.7,0,4.5,1.9,5.4,3.6l.2.9ZM110.2,50.7l1.7,1.3,2.6-1.4c1-.7,1.9-1.4,2.6-2.2l1.5,1c.2.1.4.3.4.5s-.2.4-.5.4h-.6s-2.9,1.5-2.9,1.5c-1.1.5-2.1.9-3,1.1v16.6c2.4-.9,3.6-1.5,5.9-3.1,0,0,.2-.1.2-.1.2,0,.4.2.4.4,0,.5-4.3,3.9-8.8,5.5-.1,0-.2.3-.2.7s-.3.7-.5.7-.5-.2-.7-.7l-1.1-2.1,1.8-.3,1.3-.4v-19.3ZM129.6,70.3c0,1.4-1.5,1.9-2.6,2-.1-1.4-2-1.8-2.9-2-.2,0-.4-.2-.4-.4s.2-.4.4-.4.1,0,.2,0c1.3.3,2.3.5,2.9.5s.7,0,.7-.8v-17h-6.5v23.8c0,.5-.4.6-1.4.8-.2,0-.4-.3-.4-.8v-26.3l1.8,1.5h6.5l.8-1,1.5,1.2c.2.1.3.4.3.7,0,.3-.2.5-.5.6-.3.1-.3.3-.3.5v17.2Z"/>
        <path class="cls-2" d="M103.7,113.8l-.3,1.6c0,.8.3,1.8.7,3,.3.8.5,1.6.5,2.2s-.2,1.6-1.1,1.6-1.2-.6-1.2-2.6v-1.5c0-1.1,0-1.9-.3-2.6-.1-.3-1.1-.5-2.7-.7-.2,0-.3-.2-.3-.4s.2-.3.4-.3c1.8,0,2.8-.2,3.4-1.5l5.9-11.5c0-.1.2-.2.3-.2s.3.1.3.3,0,.1,0,.2l-5.5,12.3ZM119.8,93v-3l1.8.2c.6,0,.8.2.8.5s-.1.7-.5.7c-.3,0-.5.2-.5.3v1.2h4.5l2.2-1.9,2.2,1.7c.2.1.3.3.3.5,0,.4-.3.7-.8.7h-8.4v3.4c0,.2-.2.4-.5.5-1.1.2-1.3.3-1.3-.4v-3.5h-10v3.6c0,.2-.2.4-.5.5-1.1.2-1.3.3-1.3-.5v-3.6h-8.4l-.3-1.1h8.7v-2.8l1.8.2c.6,0,.8.2.8.6s-.1.7-.5.7c-.3,0-.5.1-.5.3v1.1h10ZM101.9,107c-.2-.8-1.2-2.3-2.3-2.9-.1,0-.1-.1-.1-.2s0-.3.2-.3c.3,0,4.1,1.6,4.1,3.5s-.9.8-.9.8c-.4,0-.7-.3-.9-.9ZM104.1,101.3c-.2-.6-1.2-2.3-2.8-3.1,0,0-.1-.2-.1-.3,0-.2.2-.3.2-.3.4,0,4.5,1.8,4.5,3.7s-.8.8-.9.8c-.4,0-.7-.3-.9-.9ZM110.4,107.6c-1.4,1.8-3.3,3.7-3.7,3.7s-.3-.1-.3-.3,0-.2.1-.3c1.7-1.9,3.2-4,4.3-6.1,1.3-2.6,2.2-4.6,2.4-6.7l2,.6c.4.1.6.3.6.6s-.1.4-.6.4-.4,0-.5.1c-.8,1.9-1.7,3.7-2.7,5.4v17.1c0,.3-.1.4-1.3.7-.3,0-.5-.2-.5-.7v-14.5ZM113.4,121l-.3-1.1h9.5c1.8-4.9,2.6-9.9,2.9-13.1v-1.3l2,.4c.4,0,.6.2.6.5s-.2.5-.4.5l-.4.3c-1.2,6.4-2.9,10.8-3.9,12.7h3.6l2-1.6,1.8,1.4c.1.1.2.3.2.5,0,.4-.2.7-.8.7h-17.1ZM114.7,104.2l-.3-1.1h6.6v-4.5l1.8.4c.6,0,.8.2.8.5s-.2.5-.5.6c-.3.1-.4.3-.4.5v2.5h3.5l2-1.6,1.8,1.4c.2.1.3.3.3.5,0,.4-.3.7-.8.7h-14.9ZM117.7,116.4c0-3.7-.5-6.7-1.3-9.8,0,0,0-.1,0-.1,0-.2.2-.3.3-.3.1,0,.2,0,.3.2l1.1,2.6c.6,1.6,1.5,4.1,1.5,7.6s0,1.9-1,1.9-.8-.1-.8-.9v-1.1Z"/>
        <path class="cls-2" d="M100.1,133l1.9,1.6h5.9l1.9-1.5,1.8,1.3c.2.2.4.5.4.7,0,.4-.4.6-.7.6h-4.2v7.3h2.3l.9-.9,1.6,1.1c.1,0,.2.2.2.4s-.1.5-.6.6c-.3,0-.5.2-.5.4v8.5c0,.4-.2.5-1.2.7-.5,0-.5-.3-.5-1.7h-2.3v8.8h.9l1.9-1.5,1.8,1.3c.2.2.4.5.4.7,0,.4-.4.6-.7.6h-9.3v2.3c0,.4-.4.5-1.4.8-.2,0-.4-.3-.4-.8v-31.1ZM101.8,143h3.3v-7.3h-3.3v7.3ZM101.8,144.1v6.9h7.4v-6.9h-7.4ZM105.1,152h-3.3v8.8h3.3v-8.8ZM126.6,136.3l1.9-1.5,1.8,1.3c.2.2.4.5.4.7s-.2.6-.7.6h-14.2l-.6,1.1c-1.8,2.6-3.4,3.9-3.7,3.9s-.3-.2-.3-.3,0-.1.1-.2c2.6-2.8,4.1-6.4,4.5-8.5v-1l2,.4c.4,0,.6.3.6.6s-.2.5-.4.5c-.2,0-.4.1-.5.2l-1.1,2.4h10.3ZM112.2,151l1.7,1.2h3.9l.9-.9,1.6,1.1c.1,0,.2.2.2.4,0,.2-.2.5-.6.6-.3,0-.5.2-.5.4v10.9c0,.2-.1.4-.3.5-1.2.3-1.4.3-1.4-.5v-2.1h-3.9v1.9c0,.2-.1.3-.4.5-1.2.3-1.4.3-1.4-.5v-13.2ZM114,161.3h3.9v-8.1h-3.9v8.1ZM115.4,139.6l1.5,1.1h8.2l.8-1.2,1.4,1c.2.1.3.4.3.6,0,.2-.2.4-.4.5-.2.1-.4.2-.4.4v7.6c0,.4-.1.5-1.3.8-.3,0-.4-.2-.4-.8v-1.3h-8v1.1c0,.2-.1.4-.4.5-1.1.3-1.3.3-1.3-.6v-9.5ZM117.2,141.7v5.4h8v-5.4h-8ZM122.4,151.1l1.5,1.1h3.9l.9-.9,1.6,1.1c.1,0,.2.2.2.4,0,.2-.2.5-.6.6-.3,0-.4.2-.4.4v10.9c0,.2-.1.4-.4.5-1.1.3-1.4.3-1.4-.5v-2.1h-3.8v1.9c0,.2-.1.3-.4.5-1.2.3-1.4.3-1.4-.5v-13.1ZM124.1,161.3h3.8v-8.1h-3.8v8.1Z"/>
        <path class="cls-2" d="M100.6,185.6v.5c-.2,1-.4,1.7-.7,2.2-.6.5-.7.5-.9.5s-.3,0-.6-.6v-.6c1.4-1.9,1.7-3,1.7-4.3s0-.2.2-.2.3.1.3.3v1.1h1.3v-10.3l1.5,1.3h5.4l.8-.9,1.6,1.1c.1,0,.2.2.2.4,0,.3-.2.5-.5.7s-.4.4-.4.6v7.3h1.1l.9-1,1.1,1.3c.2.2.4.4.4.7,0,.5-.5.5-.9.5s-.5,0-.6.2l-1.6,2s-.1,0-.2,0c-.1,0-.1,0-.2-.4.4-.8.7-1.6.9-2.4h-10.9ZM101.9,187.6l1.5,1.1h5.2l.8-1,1.5,1.2c.2.1.3.4.3.6,0,.3-.2.5-.5.6-.2.1-.4.3-.4.5v14.2c0,1-.9,1.8-2.6,2,0-1.2-1.1-1.6-1.7-1.9-.2,0-.4-.2-.4-.4s.2-.4.4-.4,1.6.3,2,.3.6,0,.6-.7v-4.9h-5v7.5c0,.2-.1.4-.4.5-1.2.3-1.3.3-1.3-.5v-18.6ZM103.6,184.5h1.9v-6.2l1.3,1h2.1v-2.8h-5.3v8ZM103.6,189.7v3.5h5v-3.5h-5ZM103.6,194.2v3.5h5v-3.5h-5ZM107,184.5h1.8v-4.2h-1.8v4.2ZM112.1,205.7l-.3-1.1h11.3c.7-1.5,1.1-3.1,1.4-4.7l1.9.4c.4,0,.6.3.6.5s0,.5-.5.5-.5.1-.6.3c-.5.9-1.1,1.9-1.9,2.9h3.2l1.9-1.9,1.8,1.7c.1.1.2.4.2.5s-.1.7-.7.7h-18.4ZM127.1,189.3l.9-.8c-.5,0-.5-.4-.5-1.5h-11.5c0,.9,0,1.1-.4,1.3-1.1.3-1.3.3-1.3-.6v-11.3l1.1.8h3.4v-2.8l1.8.3c.5,0,.8.3.8.6s-.2.5-.4.6c-.4.1-.4.3-.4,1.4h2.6v-2.8l1.8.3c.5,0,.8.3.8.6s-.2.5-.4.6c-.4.1-.4.3-.4,1.4h2.6l.9-1,1.6,1.1c.1,0,.2.2.2.3s-.1.5-.5.6c-.3,0-.5.2-.5.4v9l1.6,1.5c.2.1.2.4.2.6,0,.4-.3.7-.7.7h-17.3l-.3-1.1h14.3ZM126.7,192.9l.8-1.2,1.4,1c.2.1.3.4.3.6,0,.2-.2.4-.4.5-.2.1-.4.2-.4.4v5.7c0,.5-.1.5-1.3.8-.3,0-.4-.2-.4-.8v-1.2h-10.1v1.1c0,.2-.1.4-.4.5-1.2.3-1.3.3-1.3-.6v-7.7l1.5,1.1h10.2ZM118.7,178.2h-2.8v3.3h2.8v-3.3ZM115.9,185.9h2.8v-3.3h-2.8v3.3ZM116.6,193.9v3.6h10.1v-3.6h-10.1ZM117.5,201.7c-.2-.5-.4-.9-.7-1.1,0,0-.1-.2-.1-.2,0-.2.2-.3.4-.3.6,0,2.5,2.1,2.5,2.9s0,1.3-.7,1.3-.9-.6-.9-.8l-.3-1.8ZM123.1,178.2h-2.6v3.3h2.6v-3.3ZM123.1,182.5h-2.6v3.4h2.6v-3.4ZM124.8,181.5h2.6v-3.3h-2.6v3.3ZM124.8,185.9h2.6v-3.4h-2.6v3.4Z"/>
        <path class="cls-2" d="M100.3,238.3c0-.1,0-.2.1-.2.5,0,.6,2.6.6,2.9,0,2.5-.9,3.9-1.6,3.9s-.8-.2-.8-.7.1-.5.5-.8c1-1.4,1.3-2.4,1.3-3.9s0-.8,0-1.2ZM100.1,216.9l1.5,1.1h7.6l1.9-1.9,1.8,1.7c.2.1.2.3.2.5,0,.3-.3.7-.7.7h-5.5v4.4h1.5l1.7-1.6,1.5,1.4c.2.1.2.4.2.5,0,.3-.2.7-.7.7h-4.3v4.3h1.6l1.7-1.6,1.5,1.4c.2.1.2.4.2.6,0,.4-.4.7-.7.7h-4.4v4.3h3.2l.7-1.1,1.5.9c.4.1.6.4.6.7s0,.6-.6.8c-.3,0-.5.2-.5.4,0,3-.5,7.7-1.3,9.8-.8,1.5-2.2,2.6-3.9,3.1-.2-1.4-1.3-2-3-2.5-.2,0-.3-.2-.3-.4s.1-.4.4-.4.1,0,.2,0c1.4.5,2.5.8,3.2.8.7-.3,1.4-.8,1.9-1.4.5-.6.8-2.1.9-4.4v-4.6c.1,0,.2-.8.2-.8h-8.2c0,1.1,0,1.2-.4,1.4-1.2.3-1.3.3-1.3-.6v-19.1ZM101.8,223.4h3.4v-4.4h-3.4v4.4ZM101.8,228.8h3.4v-4.3h-3.4v4.3ZM101.8,234.1h3.4v-4.3h-3.4v4.3ZM102.2,242.8c.2-.7.3-1.5.3-2.2,0-1.6-.4-2.2-.5-2.5,0,0,0-.1,0-.1,0-.2.1-.3.3-.3.5,0,1.6,2.9,1.6,4.5s-.7,1.5-.9,1.5-.1,0-.6-.4v-.6ZM106.3,242.3c-.1.2-.3.3-.5.3l-.5-.2c-.1-.1-.2-.3-.2-.5,0-.5,0-3-1.2-4.3,0,0-.1-.1-.1-.2,0-.1.2-.3.3-.3.5,0,2.5,2.9,2.5,4.5l-.2.8ZM106.1,236.8s0-.2.2-.2c.6,0,2.7,2.5,2.7,3.4s0,1-.5,1c0,0-.7,0-.7-.5-.2-1.2-.8-2.8-1.6-3.5,0,0,0-.1,0-.2ZM115.2,244.6c-1.5,2.1-3.4,3.8-3.7,3.8s-.3-.1-.3-.3,0-.2.1-.4c1.9-2.1,4.3-5.7,4.9-9.4l1.9.6c.4.1.6.3.6.5,0,.5-.4.5-.7.5s-.3,0-.3.1l-.9,1.6c1.2.6,3.1,2.3,3.5,3.5,0,1.1,0,1.5-.8,1.5s-.7-.3-.8-.6c-.3-1-.8-1.9-1.2-2.6l-1-1.2-1.4,2.3ZM122.2,216.8c.4.1.6.3.6.5s-.1.5-.5.5c1.8,3,4.3,6.1,8.8,7.4.1,0,.2.1.2.2s-.2.3-.6.4c-.4,0-.8.3-.9.6,0,.2-.2.4-.4.4s-.1,0-.2,0c-3.3-1.9-5.7-4.8-7.6-8.5-1.1,2.2-2.5,4.1-4.1,5.6-2.8,2.7-5.8,4-5.9,4-.2,0-.3-.2-.3-.3s0-.2.1-.2c4.1-2.2,8.4-7.5,8.8-11l1.9.5ZM113.5,228.4l1.5,1.1h3.6l.8-1.2,1.4,1c.2.1.2.4.2.6,0,.2-.2.4-.4.5-.2.1-.4.2-.4.4v6.6c0,.5-.1.5-1.3.8-.3,0-.5-.2-.5-.8v-1.1h-3.5v1.1c0,.2-.1.4-.4.5-1.2.3-1.3.3-1.3-.6v-8.9ZM115.2,235.2h3.5v-4.7h-3.5v4.7ZM122.2,225.2l2-1.6,1.8,1.4c.2.1.3.3.3.5,0,.4-.3.7-.8.7h-8.6l-.3-1.1h5.6ZM124.3,244.8c-1.5,2.1-3.5,3.8-3.8,3.8s-.3-.1-.3-.3,0-.2.1-.4c2-2.1,4.5-5.9,5-9.6l2,.6c.4.1.6.3.6.5s0,.5-.6.5-.5,0-.5.1l-1.2,2.3c.8.4,1.7,1,2.6,1.8,1.2.9,2.3,2,2.3,3.5s-.2.6-.8.6-.7-.2-.8-.5c-1.3-2.7-2.8-4.1-3.7-4.8l-1.1,1.7ZM122.1,228.4l1.3.9h3.9l.8-1.2,1.4,1c.2.1.2.4.2.6,0,.2-.1.4-.4.5-.2.1-.4.2-.4.4v6.6c0,.5-.1.5-1.3.8-.5,0-.5-.4-.5-1.7h-3.5c0,1.1,0,1.2-.4,1.4-1.2.3-1.3.3-1.3-.6v-8.7ZM123.8,235.2h3.5v-4.8h-3.5v4.8Z"/>
      </g>
      <g>
        <path class="cls-2" d="M17.1,10.5l-.3-1.1h14.4v-3.5l1.8.3c.5,0,.8.3.8.6s-.2.5-.4.6c-.3.1-.4.3-.4.5v1.5h9.7l2.2-1.8,2.2,1.6c.2.1.3.3.3.6,0,.5-.4.7-.8.7h-29.5ZM20.7,23.3v14.5c0,.4-.3.5-1.4.8-.2,0-.4-.2-.4-.8v-17.1l1.9,1.6h22.6l.8-.9,1.4,1.1c.3.2.5.5.5.7s-.2.5-.5.6c-.3.1-.4.3-.4.4v12.1c0,.8-.6,1.8-3.2,2.1l-.4-1.2c-.2-.4-.9-.8-2-1.3-.2,0-.3-.2-.3-.4s0-.3.3-.3h.1c1.5.4,2.5.6,3,.6s.7-.4.7-.8v-11.7h-22.8ZM38.4,13.1l.8-1.2,1.4,1c.2.1.2.4.2.6,0,.2-.1.4-.4.5-.2.1-.4.2-.4.4v6.6c0,.5-.1.5-1.3.8-.3,0-.5-.2-.5-.8v-1.6h-12.6v1.2c0,.2-.1.3-.4.5-1.1.3-1.3.3-1.3-.5v-8.5l1.5,1.1h12.8ZM25.8,14.1v4.1h12.6v-4.1h-12.6ZM26,25.4l1.5,1.1h8.7l.8-1.2,1.4,1c.2.1.3.4.3.6,0,.2-.2.4-.4.5-.2.1-.4.2-.4.4v7c0,.5-.1.5-1.3.8-.2,0-.4-.2-.4-.8v-1.6h-8.6v1.6c0,.2-.1.4-.4.5-1.2.2-1.3.3-1.3-.6v-9.3ZM27.7,27.6v4.6h8.6v-4.6h-8.6Z"/>
        <path class="cls-2" d="M17.6,64.2l1.7,1.2h8.3l.9-1,1.6,1.1c.1,0,.2.2.2.3s-.1.5-.6.6c-.3,0-.5.2-.5.4v13c0,.2-.1.4-.3.5-1.2.3-1.4.3-1.4-.5v-2.5h-8.3v2.1c0,.2-.1.4-.4.5-1.1.3-1.3.3-1.3-.6v-15.3ZM19.4,76.4h8.3v-9.9h-8.3v9.9ZM37.9,49.4l.9-1,1.6,1.1c.1,0,.2.2.2.3s-.1.5-.6.6c-.3,0-.5.2-.5.4v11.1c0,.2-.1.4-.3.5-1.2.3-1.4.3-1.4-.5v-1.8h-12.9v1.6c0,.2-.1.4-.4.5-1.2.3-1.3.3-1.3-.6v-13.2l1.3.9h13.3ZM25,50.5v8.7h12.9v-8.7h-12.9ZM33.8,64.3l1.5,1.1h8.8l.9-1,1.6,1.1c.1,0,.2.2.2.3s0,.5-.5.6c-.3,0-.5.2-.5.4v13c0,.2-.1.4-.4.5-1.1.3-1.4.4-1.4-.5v-2.5h-8.7v2.1c0,.2-.1.4-.4.5-1.1.3-1.3.3-1.3-.6v-15.2ZM35.5,76.4h8.7v-9.9h-8.7v9.9Z"/>
        <path class="cls-2" d="M27.7,95.7l1.9-1.5,1.8,1.3c.2.2.4.5.4.7s-.2.6-.7.6h-3.4v5c0,.5-1.3.6-1.4.6-.2,0-.4-.2-.4-.6v-5h-4.8l-.5,2.7c-.8,3.5-4,5.3-4.3,5.3s-.2-.1-.2-.3,0-.2.1-.2c1.7-1.5,3.3-3.4,3.3-9.5v-3.7l1.5,1.2c3.8-.5,5.9-1.2,7.4-2.1l1.9.8c.3.1.4.4.4.5,0,.2-.3.5-.7.5h-.9c-1.3.4-2.8.7-4.5.9l-3.5.2v2.7s6.5,0,6.5,0ZM28.4,120c-1.4.8-3.2,1.4-5.2,1.9-2,.5-3.7.8-4.9.9-.3,0-.5-.1-.5-.3s0-.3.2-.3c4.2-.5,9.1-3,9.6-3.9l1.5.8c.3.1.4.3.4.5s-.2.6-.5.6h-.7ZM40.6,103.3l.9-1,1.6,1.1c.1,0,.2.2.2.3s-.1.5-.6.6c-.3,0-.5.2-.5.4v13.7c0,.2-.1.4-.3.5-1.1.3-1.4.3-1.4-.5v-1.1h-16.8v1.3c0,.2-.1.4-.4.5-1.1.3-1.3.3-1.3-.6v-16.4l1.5,1.1h16.9ZM23.9,104.3v3.2h16.8v-3.2h-16.8ZM23.9,108.6v3.3h16.8v-3.3h-16.8ZM23.9,112.9v3.3h16.8v-3.3h-16.8ZM43.7,95.7l1.9-1.5,1.8,1.3c.2.2.4.5.4.7s-.2.6-.7.6h-5.2v4.9c0,.5-1.3.6-1.3.6-.3,0-.4-.2-.4-.6v-4.9h-5.1l-.4,1.5c-1.2,3.1-4.4,4.4-4.6,4.4s-.3-.1-.3-.3,0-.2.1-.2c1.7-1.1,3.7-2.6,3.7-7.9v-3.3l1.4,1.1,4.7-.8c1.4-.4,2.5-.8,3.2-1.2l1.9.9c.3.1.5.3.5.5,0,.3-.4.4-.7.4h-.9c-1.3.4-2.9.7-4.6.9l-3.7.2v2.8c0,0,8.5,0,8.5,0ZM36.8,119.1c3.8.2,8.3,1.5,8.3,2.9s-.5.8-.7.8-.6-.1-.9-.3c-2.8-1.4-6.5-2.4-9.1-2.8-.2,0-.4-.1-.4-.3s.1-.3.3-.3h2.5Z"/>
        <path class="cls-2" d="M27.6,162.6c0,1-.7,1.7-3.2,2.1-.1-1.2-.8-1.4-2.6-2.1-.2,0-.4-.2-.4-.4,0-.2.1-.2.3-.2h0c1.2.2,2.1.3,2.7.3s1.3,0,1.3-.9v-10.9h-5.8v1.3c-.4,3-1.3,8.8-3.9,12.7-.1,0-.2.1-.3.1s-.2-.2-.2-.3,0-.1,0-.2c1.2-3,2-5.5,2.6-12.2.2-2.8.4-6.8.4-12.1v-7.6l1.7,1.3h5.4l.8-1,1.4,1.2c.3.2.5.4.5.7s-.2.5-.5.6c-.3.1-.4.2-.4.4v27.2ZM20.1,149.4h5.7v-7h-5.4l-.3,7ZM25.8,134.6h-5.4v6.7h5.4v-6.7ZM31.6,132.2l1.8,1.5h9.8l.9-.9,1.4,1.2c.1.1.2.2.2.4,0,.3-.2.5-.5.6-.2,0-.4.3-.4.6-.1,1.6-.3,3.1-.6,4.3-.5,2.6-.8,4.2-4,4.3,0-.4-.1-1.7-2-2.2-.1,0-.2-.2-.2-.3s.1-.4.4-.4h.1c1.4.5,2.4.8,3,.8s.6-.3.7-.6c.2-.6.7-2.7.9-6.6h-9.8v11.7h10.5l.5-.5,1.8.8c.3.1.4.3.4.6s-.2.5-.5.6c-.3.1-.5.3-.5.5-.3,2.2-1,4.5-1.9,6.5-.6,1.4-1.4,2.6-2.3,3.8,2.5,2.6,5.2,3.7,6.7,4.2.2,0,.3.1.3.2,0,.1-.3.3-.8.4-.5.1-.8.4-.9.8,0,.3-.2.4-.4.4-.3,0-3.9-2.3-6-4.9l-.6.6c-2.6,2.6-5.4,3.9-5.5,3.9-.2,0-.4-.4-.4-.5s0-.1,0-.1c2.2-1.3,4.1-2.9,5.5-5-2.9-4.1-4.2-10-4.4-11.3h-1.8v16.5c0,.4-.3.5-1.4.8-.2,0-.4-.2-.4-.8v-31.8ZM35.9,147.5c1,4.1,2.3,7.4,4.5,10.2,3.1-4.6,3.4-9.5,3.4-10.2h-7.9Z"/>
        <path class="cls-2" d="M24.8,203.9c0,1.6-1.4,2.6-3.2,3,0-.2-.1-.6-.4-1.1-.3-.4-1.2-.9-2.8-1.5-.2,0-.2-.2-.2-.3s.1-.2.4-.2c1.8.3,3,.4,3.7.4s.8,0,.8-.7v-12.6l-.6,1.6c-2,5-5.9,8.1-6.3,8.1s-.2-.1-.2-.3,0-.2.1-.3c1.8-1.6,4.9-6.3,6.2-12.7h-5.9l-.2-1.1h12.6l1.1-1.2,1.3,1.5c.3.2.4.5.4.7s-.2.6-.7.6h-.4c-.3,0-.5,0-.6.2l-3,4c0,0-.1,0-.2,0-.2,0-.3-.2-.3-.4h0c.9-1.5,1.7-3.1,2.2-4.6h-3.6v16.5ZM27.7,176.3l1.2-1.1,1.2,1.7c.2.2.3.5.3.7s0,.7-.6.7-.6-.1-.7-.1c-.2,0-.4,0-.5.2-1.7,1.8-3.3,3.3-4.7,4.6.9,1,.9,1.4.9,2.5-.1.5-.6.6-.7.6-.4,0-.7-.2-.8-.6-.8-2.6-2.1-4-2.9-4.5-.1,0-.2-.2-.2-.2,0-.1.1-.4.3-.4.3,0,1.8.8,2.9,2.2,1.5-1.6,2.9-3.3,3.9-5h-10.3l-.2-1.1h10.9ZM36.9,195.3l-.4,1.9c-1.1,3.9-3,5.6-4.9,6.8-2.2,1.5-4.7,2.3-4.8,2.3-.2,0-.4-.2-.4-.4s0-.2.2-.2c1.3-.5,2.6-1.3,3.9-2.2,2.1-1.5,3.7-3.4,4.5-6.8l.3-1.4h-6.1l-.2-1.1h6.4l.3-4,1.9.4c.5,0,.8.3.8.6s-.2.4-.5.4-.5.1-.5.3l-.3,2.4h6.6l.7-1.1,1.5.9c.4.2.6.5.6.7s-.1.7-.6.7c-.3,0-.5.2-.6.5,0,1.7-.3,3.3-.6,4.8-.5,2.8-1.2,4.9-4.6,5.9-.1-1.1-.6-1.8-2.3-2.4-.2,0-.4-.2-.4-.4s0-.4.4-.4.1,0,.2,0c1.2.4,2.1.7,2.7.7.6-.2,1.1-.5,1.5-1,.4-.5.7-1.6.9-3.5l.4-3.6v-.8c.1,0-6.6,0-6.6,0ZM43.4,178.6l2.1-1.9,2.1,1.6c.2.2.4.5.4.7,0,.4-.3.7-.7.7h-3.7l-.8,2.3c-.5,1.3-1.5,3.1-2.7,4.2,3.3,2,6.7,2.7,8.2,2.9.1,0,.2.1.2.2s-.3.3-.8.4c-.6.1-.9.5-1,.8,0,.4-.2.5-.4.5s-4.1-1.4-7.2-3.8c-.9.9-2.7,2.5-6,3.6-1,.4-3.8,1.2-4.7,1.2s-.2-.1-.2-.2c0-.2,0-.4.2-.4,1.1-.2,5.2-1.2,8.4-4l1.1-1.2c-2-1.8-3.4-4.2-4.2-6.1-.6,1.3-3.2,3.8-3.6,3.8s-.3-.1-.3-.3,0-.2.1-.4c1.6-1.8,4-5.1,4.7-9l1.9.6c.4.1.6.3.6.5,0,.5-.4.5-.7.5s-.3,0-.3.1l-1.3,2.5h8.4ZM34.2,179.6c1.1,2.1,2.4,4.1,4.7,5.7l1.2-1.7c.8-1.3,1.3-2.7,1.6-4.1h-7.5Z"/>
        <path class="cls-2" d="M16.3,239.4l-.3-1.1h3.9l-1.2-19.3,1.9,1.1,2.3-1.1c1.8-1.2,2.2-1.5,2.6-2.1l1.4,1.1c.2.1.3.3.3.5s-.2.4-.5.4-.4-.1-.5-.1,0,0-.1,0l-2.8,1.3-2.7.8.3,5.1h2l1.9-1.9,1.8,1.7c.2.1.2.3.2.6,0,.4-.4.7-.7.7h-5.2l.3,5.4h1.5l1.9-1.9,1.8,1.7c.2.1.2.3.2.5,0,.4-.3.7-.7.7h-4.7l.3,4.8h5.6c.9-2.9,1.4-5.6,1.5-7.9h1.9c.4,0,.6.2.7.5,0,.2-.1.4-.4.5-.2,0-.4.4-.5.7-.4,1.9-.9,4-1.6,6.3h4.2l1.7-11.4h-5.3l-.2.9c0,.6-.9.7-1.2.7s-.6,0-.6-.5,0-.3.1-.5c.5-2,.9-3.6,1.1-5l.4-4.2v-1.6l2,.3c.4,0,.7.2.7.5s-.1.5-.4.6c-.3.1-.5.4-.5.6l-.2,2.2h2.8l1.9-1.9,1.8,1.7c.2.1.2.3.2.5,0,.4-.3.7-.7.7h-6.1l-.2,1.2-.5,2.7h5.1l.9-1,1.1,1.2c.2.2.4.5.4.7s-.2.5-.5.6c-.2,0-.4.2-.4.5l-1.6,10.5h7l.5-4.7h-4l-.3-1.1h4.4l.6-5.5h-4.3l-.3-1.1h4.7l.7-5.6h-5.6l-.2-1.1h5.9l.9-1.1,1.2,1.2c.2.2.4.4.4.7s-.2.5-.5.5c-.3,0-.5.2-.5.5l-1.8,17.2h.4l1.9-1.9,1.8,1.7c.2.1.2.3.2.5,0,.3-.3.7-.7.7h-30.9ZM28.3,243.1c-.9.9-3.6,3.2-7,4.3-1.5.5-3,.9-4.2,1.2-.3,0-.4-.1-.4-.3s0-.2.2-.3c6.1-1.9,8.6-4.3,10.4-6.9l1.8.8c.3.2.5.4.5.6s-.3.5-.6.5h-.6ZM35.1,241.7c0-.2.1-.4.3-.4.5,0,10.3,3.6,10.3,6.5s-.3.9-.8.9-.2,0-.7-.3c-1.5-1.7-4.1-4.3-8.9-6.4-.1,0-.2-.2-.2-.3Z"/>
        <path class="cls-2" d="M43.1,270.7l2.1-1.9,2.1,1.6c.2.2.4.5.4.7,0,.4-.3.6-.7.6h-26c0,4.8-.1,10.3-1.9,14.4-.7,1.7-2.6,4.4-3.1,4.4s-.3-.2-.3-.3,0-.2.1-.3c2.3-3.4,3.4-6.9,3.4-17.3v-2.8l1.6.9h22.2ZM17.7,263.3l-.2-1.1h13.2v-3.6l1.8.3c.6,0,.8.3.8.6s-.2.5-.5.6-.4.3-.4.5v1.7h8.9l2.2-1.9,2.2,1.7c.2.1.3.3.3.6,0,.5-.4.7-.8.7h-27.5ZM21.5,289.8l-.3-1.1h11.8v-4.4h-7.3l-.3-1.1h7.6v-4.6h-6.9l-.9,1.6c-1.7,2.8-3.5,4.3-3.7,4.3s-.3-.1-.3-.3,0-.2.1-.3c1.2-1.5,2.3-3.2,3.1-5,.7-1.7,1.3-3.3,1.5-4.6v-.9c0,0,2.1.5,2.1.5.4.1.6.3.6.5s-.1.5-.5.5-.5,0-.5.2l-1.1,2.5h6.3v-4.9l1.8.4c.5,0,.8.2.8.5s-.2.5-.5.6c-.2.1-.4.3-.4.5v2.9h5.9l2.1-1.8,2.1,1.6c.2.2.4.4.4.7s-.1.7-.7.7h-9.8v4.6h4.9l2.2-1.9,2.2,1.7c.2.1.3.3.3.5,0,.5-.4.7-.8.7h-8.9v4.4h8.3l2.2-1.9,2.2,1.7c.2.1.3.3.3.5,0,.4-.3.7-.8.7h-25.6ZM30.4,268.7c-3.2.8-5.8,1.3-7.8,1.3-.3,0-.5-.1-.5-.3s0-.4.2-.4c2.4-.2,5.2-.8,8.2-1.8l1-.4h-.1c-2.3-.7-4.7-1.3-6.9-1.6-.2,0-.4-.2-.4-.4s.1-.3.3-.3l3.7.2c2,.1,4,.5,5.9,1,1-.4,3.5-1.6,4-2.3l1.4.9c.2.1.4.4.4.5s-.1.5-.5.5h-.7c0-.1-2.5,1-2.5,1,1.4.5,2.4,1,3,1.4.2.2.7.5.7,1s-.4.8-.7.8-.6-.1-.9-.3c-1.5-.8-3.2-1.4-4.7-2l-3,.9Z"/>
        <path class="cls-2" d="M17.6,316.6l1.7,1.2h8.3l.9-1,1.6,1.1c.1,0,.2.2.2.3s-.1.5-.6.6-.5.2-.5.4v13c0,.2-.1.4-.3.5-1.2.3-1.4.3-1.4-.5v-2.5h-8.3v2.1c0,.2-.1.4-.4.5-1.1.3-1.3.3-1.3-.6v-15.3ZM19.4,328.8h8.3v-9.9h-8.3v9.9ZM37.9,301.8l.9-1,1.6,1.1c.1,0,.2.2.2.3s-.1.5-.6.6-.5.2-.5.4v11.1c0,.2-.1.4-.3.5-1.2.3-1.4.3-1.4-.5v-1.8h-12.9v1.6c0,.2-.1.4-.4.5-1.2.3-1.3.3-1.3-.6v-13.2l1.3.9h13.3ZM25,302.9v8.7h12.9v-8.7h-12.9ZM33.8,316.8l1.5,1.1h8.8l.9-1,1.6,1.1c.1,0,.2.2.2.3s0,.5-.5.6c-.3,0-.5.2-.5.4v13c0,.2-.1.4-.4.5-1.1.3-1.4.4-1.4-.5v-2.5h-8.7v2.1c0,.2-.1.4-.4.5-1.1.3-1.3.3-1.3-.6v-15.2ZM35.5,328.8h8.7v-9.9h-8.7v9.9Z"/>
      </g>
    </g>
  </g>
</svg>